<?xml version="1.0" encoding="UTF-8" standalone="no"?>
<svg
   xmlns:dc="http://purl.org/dc/elements/1.1/"
   xmlns:cc="http://creativecommons.org/ns#"
   xmlns:rdf="http://www.w3.org/1999/02/22-rdf-syntax-ns#"
   xmlns:svg="http://www.w3.org/2000/svg"
   xmlns="http://www.w3.org/2000/svg"
   xmlns:sodipodi="http://sodipodi.sourceforge.net/DTD/sodipodi-0.dtd"
   xmlns:inkscape="http://www.inkscape.org/namespaces/inkscape"
   width="48"
   height="48"
   viewBox="0 0 12.7 12.700001"
   version="1.1"
   id="svg8"
   inkscape:version="1.0 (4035a4f, 2020-05-01)"
   sodipodi:docname="dashboard_logo.svg">
  <defs
     id="defs2" />
  <sodipodi:namedview
     id="base"
     pagecolor="#ffffff"
     bordercolor="#666666"
     borderopacity="1.0"
     inkscape:pageopacity="0.0"
     inkscape:pageshadow="2"
     inkscape:zoom="5.2893856"
     inkscape:cx="47.585781"
     inkscape:cy="-2.7013742"
     inkscape:document-units="px"
     inkscape:current-layer="g1065"
     showgrid="false"
     units="px"
     inkscape:showpageshadow="false"
     inkscape:window-width="1920"
     inkscape:window-height="1035"
     inkscape:window-x="0"
     inkscape:window-y="23"
     inkscape:window-maximized="0"
     inkscape:document-rotation="0" />
  <metadata
     id="metadata5">
    <rdf:RDF>
      <cc:Work
         rdf:about="">
        <dc:format>image/svg+xml</dc:format>
        <dc:type
           rdf:resource="http://purl.org/dc/dcmitype/StillImage" />
        <dc:title></dc:title>
      </cc:Work>
    </rdf:RDF>
  </metadata>
  <g
     inkscape:label="Livello 1"
     inkscape:groupmode="layer"
     id="layer1"
     transform="translate(0,-290.64998)">
    <g
       transform="matrix(0.11352974,0,0,0.11352974,-0.38673661,290.26324)"
       id="g1065">
      <g
         transform="matrix(0.92000002,0,0,0.92000002,0.45895986,0.92455972)"
         id="g1140">
        <path
           id="path973"
           fill="#e6e7e8"
           d="M 115.263,15.557 H 17.737 a 8,8 0 0 0 -8,8 v 66.26 a 8,8 0 0 0 8,8 H 54.58 l -1.806,12.088 h -9.292 a 3.156,3.156 0 0 0 -3.157,3.156 v 0.227 a 3.156,3.156 0 0 0 3.156,3.155 h 45.038 a 3.156,3.156 0 0 0 3.156,-3.156 v -0.226 a 3.156,3.156 0 0 0 -3.156,-3.156 H 79.226 L 77.42,97.817 h 37.843 a 7,7 0 0 0 7,-7 v -68.26 a 7,7 0 0 0 -7,-7 z" />
        <rect
           id="rect975"
           y="12.557"
           x="6.737"
           width="110.526"
           rx="7"
           height="80.260002"
           fill="#6dc9f7" />
        <path
           id="path977"
           fill="#d4fbff"
           d="M 110.263,12.557 H 13.737 a 7,7 0 0 0 -7,7 v 59.6 h 110.526 v -59.6 a 7,7 0 0 0 -7,-7 z" />
        <path
           id="path979"
           fill="#ffffff"
           d="M 110.263,12.557 H 13.737 a 7,7 0 0 0 -7,7 v 3.368 a 7.368,7.368 0 0 1 7.368,-7.368 H 109.9 a 7.368,7.368 0 0 1 7.368,7.368 v -3.368 a 7,7 0 0 0 -7.005,-7 z" />
        <rect
           id="rect981"
           y="106.905"
           x="37.326"
           width="49.348999"
           rx="2.1559999"
           height="4.539"
           fill="#0089ef" />
        <path
           id="path983"
           fill="#0089ef"
           d="M 72.259,92.817 H 51.741 l -2.105,14.088 h 24.728 z" />
        <path
           id="path985"
           fill="#ffffff"
           d="m 93.228,83.492 a 2.105,2.105 0 1 0 2.106,2.1 2.105,2.105 0 0 0 -2.106,-2.1 z" />
        <path
           id="path987"
           fill="#0089ef"
           d="m 100.6,83.492 a 2.105,2.105 0 1 0 2.105,2.1 2.1,2.1 0 0 0 -2.105,-2.1 z" />
        <path
           id="path989"
           fill="#fa759e"
           d="m 107.965,83.492 a 2.105,2.105 0 1 0 2.106,2.1 2.105,2.105 0 0 0 -2.106,-2.1 z" />
        <path
           id="path997"
           fill="#6dc9f7"
           d="m 46.5,30.369 -15.538,6.918 v 17.47 L 46.5,61.675 Z" />
        <path
           id="path999"
           fill="#fa759e"
           d="m 57.473,45.956 a 4.808,4.808 0 0 1 -5.335,4.786 v -9.567 a 4.808,4.808 0 0 1 5.335,4.781 z" />
        <path
           id="path1001"
           fill="#6dc9f7"
           d="M 30.962,37.287 H 22 A 8.735,8.735 0 0 0 13.265,46.022 8.735,8.735 0 0 0 22,54.757 h 8.963 z" />
        <rect
           id="rect1003"
           y="26.483999"
           x="46.501999"
           width="5.6360002"
           rx="2.8169999"
           height="39.080002"
           fill="#d4fbff" />
        <path
           id="path1005"
           fill="#0089ef"
           d="m 23.375,54.757 v 11 a 2.4,2.4 0 0 0 4.8,0 v -11 z" />
        <g
           id="g1027"
           fill="#3a2c60">
          <path
             id="path1007"
             d="M 110.264,11.557 H 13.737 a 8.009,8.009 0 0 0 -8,8 v 66.26 a 8.009,8.009 0 0 0 8,8 H 50.58 L 48.774,105.9 h -9.293 a 3.16,3.16 0 0 0 -3.156,3.157 v 0.226 a 3.16,3.16 0 0 0 3.156,3.156 h 45.037 a 3.16,3.16 0 0 0 3.157,-3.156 v -0.226 A 3.16,3.16 0 0 0 84.518,105.9 H 75.226 L 73.419,93.817 h 36.845 a 8.009,8.009 0 0 0 8,-8 V 48.162 a 1,1 0 1 0 -2,0 V 78.154 H 7.737 v -58.6 a 6.007,6.007 0 0 1 6,-6 h 96.527 a 6.007,6.007 0 0 1 6,6 v 9.461 a 1,1 0 0 0 2,0 v -9.458 a 8.009,8.009 0 0 0 -8,-8 z m -24.589,97.5 v 0.226 a 1.157,1.157 0 0 1 -1.157,1.156 H 39.481 a 1.157,1.157 0 0 1 -1.156,-1.156 v -0.226 a 1.158,1.158 0 0 1 1.156,-1.157 h 45.037 a 1.158,1.158 0 0 1 1.157,1.161 z M 73.2,105.9 H 50.8 l 1.8,-12.083 h 18.8 z m 43.06,-25.75 v 5.663 a 6.007,6.007 0 0 1 -6,6 H 13.737 a 6.007,6.007 0 0 1 -6,-6 v -5.659 z" />
          <path
             id="path1009"
             d="m 117.264,32.229 a 1,1 0 0 0 -1,1 v 10.877 a 1,1 0 1 0 2,0 V 33.229 a 1,1 0 0 0 -1,-1 z" />
          <path
             id="path1015"
             d="m 64.8,45.023 h -3.852 a 1,1 0 0 0 0,2 H 64.8 a 1,1 0 0 0 0,-2 z" />
          <path
             id="path1017"
             d="m 61.512,51.322 a 1.0003172,1.0003172 0 1 0 -1.127,1.653 l 3.848,2.625 a 1.0003172,1.0003172 0 0 0 1.127,-1.653 z" />
          <path
             id="path1019"
             d="m 60.949,40.9 a 1,1 0 0 0 0.563,-0.173 L 65.36,38.1 a 1.0003172,1.0003172 0 0 0 -1.127,-1.653 l -3.848,2.625 a 1,1 0 0 0 0.564,1.826 z" />
          <path
             id="path1021"
             d="m 25.775,69.155 a 3.4,3.4 0 0 0 3.4,-3.4 v -10 h 1.576 l 14.754,6.569 v 0.421 a 3.817,3.817 0 1 0 7.634,0 v -11 a 5.807,5.807 0 0 0 0,-11.575 V 29.3 a 3.819,3.819 0 1 0 -7.638,0 v 0.419 l -14.75,6.567 H 22 a 9.735,9.735 0 0 0 0,19.47 h 0.376 v 10 a 3.4,3.4 0 0 0 3.399,3.399 z m 1.4,-3.4 a 1.4,1.4 0 0 1 -2.8,0 v -10 h 2.8 z m 29.3,-19.8 a 3.819,3.819 0 0 1 -3.334,3.785 v -7.564 a 3.816,3.816 0 0 1 3.332,3.78 z m -8.441,-17.94 a 1.82,1.82 0 0 1 3.105,1.285 v 33.447 a 1.817,1.817 0 1 1 -3.634,0 V 29.3 a 1.8,1.8 0 0 1 0.527,-1.284 z M 45.5,60.137 31.962,54.108 V 37.936 L 45.5,31.908 Z M 14.264,46.022 A 7.743,7.743 0 0 1 22,38.287 h 7.963 v 15.47 H 22 a 7.743,7.743 0 0 1 -7.736,-7.735 z" />
          <path
             id="path1023"
             d="M 105.036,60.764 H 75.565 a 1,1 0 0 0 0,2 h 29.471 a 1,1 0 0 0 0,-2 z" />
          <path
             id="path1025"
             d="M 105.036,67.764 H 75.565 a 1,1 0 0 0 0,2 h 29.471 a 1,1 0 0 0 0,-2 z" />
        </g>
        <path
           id="rect1067"
           style="fill:#fa759e;fill-opacity:1;stroke:none;stroke-width:1.19006"
           d="m 76.080694,41.225096 h 28.383996 c 1.2911,0 2.33052,1.039412 2.33052,2.33052 v 5.527443 H 73.750174 v -5.527443 c 0,-1.291108 1.039412,-2.33052 2.33052,-2.33052 z"
           sodipodi:nodetypes="sssccss" />
        <rect
           style="fill:#6dc9f7;fill-opacity:1;stroke:none;stroke-width:1.35178"
           id="rect1071"
           width="33.044445"
           height="8.2611113"
           x="73.750763"
           y="49.083057" />
      </g>
    </g>
  </g>
</svg>
