<?xml version="1.0" encoding="UTF-8" standalone="no"?>
<svg
   xmlns:dc="http://purl.org/dc/elements/1.1/"
   xmlns:cc="http://creativecommons.org/ns#"
   xmlns:rdf="http://www.w3.org/1999/02/22-rdf-syntax-ns#"
   xmlns:svg="http://www.w3.org/2000/svg"
   xmlns="http://www.w3.org/2000/svg"
   xmlns:sodipodi="http://sodipodi.sourceforge.net/DTD/sodipodi-0.dtd"
   xmlns:inkscape="http://www.inkscape.org/namespaces/inkscape"
   width="48"
   height="48"
   viewBox="0 0 12.7 12.7"
   version="1.1"
   id="svg8"
   inkscape:version="0.92.5 (2060ec1f9f, 2020-04-08)"
   sodipodi:docname="icric_pai_card.svg">
  <defs
     id="defs2" />
  <sodipodi:namedview
     id="base"
     pagecolor="#ffffff"
     bordercolor="#666666"
     borderopacity="1.0"
     inkscape:pageopacity="0.0"
     inkscape:pageshadow="2"
     inkscape:zoom="6.0646254"
     inkscape:cx="26.184189"
     inkscape:cy="23.236212"
     inkscape:document-units="px"
     inkscape:current-layer="g1428"
     showgrid="false"
     units="px"
     inkscape:showpageshadow="false"
     inkscape:window-width="1920"
     inkscape:window-height="1035"
     inkscape:window-x="28"
     inkscape:window-y="18"
     inkscape:window-maximized="0"
     inkscape:document-rotation="0" />
  <metadata
     id="metadata5">
    <rdf:RDF>
      <cc:Work
         rdf:about="">
        <dc:format>image/svg+xml</dc:format>
        <dc:type
           rdf:resource="http://purl.org/dc/dcmitype/StillImage" />
        <dc:title></dc:title>
      </cc:Work>
    </rdf:RDF>
  </metadata>
  <g
     inkscape:label="Livello 1"
     inkscape:groupmode="layer"
     id="layer1"
     transform="translate(0,-290.64998)">
    <g
       transform="matrix(0.6317234,0,0,0.6317234,22.257099,286.65854)"
       id="g1403">
      <g
         transform="matrix(0.80005305,0,0,0.80005305,-59.127173,-14.02935)"
         id="g1428">
        <g
           id="g1367"
           fill="#607d8b" />
        <g
           transform="matrix(0.7734953,0,0,0.7734953,-16.225193,9.5170598)"
           id="g1988">
          <g
             id="g1604"
             transform="matrix(0.26717391,0,0,0.26717391,58.732933,19.720565)">
            <path
               id="path1512"
               fill="#e6e7e8"
               d="M 115.263,15.557 H 17.737 a 8,8 0 0 0 -8,8 v 66.26 a 8,8 0 0 0 8,8 H 54.58 l -1.806,12.088 h -9.292 a 3.156,3.156 0 0 0 -3.157,3.156 v 0.227 a 3.156,3.156 0 0 0 3.156,3.155 h 45.038 a 3.156,3.156 0 0 0 3.156,-3.156 v -0.226 a 3.156,3.156 0 0 0 -3.156,-3.156 H 79.226 L 77.42,97.817 h 37.843 a 7,7 0 0 0 7,-7 v -68.26 a 7,7 0 0 0 -7,-7 z" />
            <rect
               id="rect1514"
               y="12.557"
               x="6.737"
               width="110.526"
               rx="7"
               height="80.260002"
               fill="#6dc9f7" />
            <path
               id="path1516"
               fill="#d4fbff"
               d="M 110.263,12.557 H 13.737 a 7,7 0 0 0 -7,7 v 59.6 h 110.526 v -59.6 a 7,7 0 0 0 -7,-7 z" />
            <path
               id="path1518"
               fill="#ffffff"
               d="M 110.263,12.557 H 13.737 a 7,7 0 0 0 -7,7 v 3.368 a 7.368,7.368 0 0 1 7.368,-7.368 H 109.9 a 7.368,7.368 0 0 1 7.368,7.368 v -3.368 a 7,7 0 0 0 -7.005,-7 z" />
            <rect
               id="rect1520"
               y="106.905"
               x="37.326"
               width="49.348999"
               rx="2.1559999"
               height="4.539"
               fill="#0089ef" />
            <path
               id="path1522"
               fill="#0089ef"
               d="M 72.259,92.817 H 51.741 l -2.105,14.088 h 24.728 z" />
            <path
               id="path1524"
               fill="#ffffff"
               d="m 93.228,83.492 a 2.105,2.105 0 1 0 2.106,2.1 2.105,2.105 0 0 0 -2.106,-2.1 z" />
            <path
               id="path1526"
               fill="#0089ef"
               d="m 100.6,83.492 a 2.105,2.105 0 1 0 2.105,2.1 2.1,2.1 0 0 0 -2.105,-2.1 z" />
            <path
               id="path1528"
               fill="#fa759e"
               d="m 107.965,83.492 a 2.105,2.105 0 1 0 2.106,2.1 2.105,2.105 0 0 0 -2.106,-2.1 z" />
            <g
               id="g1566"
               fill="#3a2c60">
              <path
                 id="path1546"
                 d="M 110.264,11.557 H 13.737 a 8.009,8.009 0 0 0 -8,8 v 66.26 a 8.009,8.009 0 0 0 8,8 H 50.58 L 48.774,105.9 h -9.293 a 3.16,3.16 0 0 0 -3.156,3.157 v 0.226 a 3.16,3.16 0 0 0 3.156,3.156 h 45.037 a 3.16,3.16 0 0 0 3.157,-3.156 v -0.226 A 3.16,3.16 0 0 0 84.518,105.9 H 75.226 L 73.419,93.817 h 36.845 a 8.009,8.009 0 0 0 8,-8 V 48.162 a 1,1 0 1 0 -2,0 V 78.154 H 7.737 v -58.6 a 6.007,6.007 0 0 1 6,-6 h 96.527 a 6.007,6.007 0 0 1 6,6 v 9.461 a 1,1 0 0 0 2,0 v -9.458 a 8.009,8.009 0 0 0 -8,-8 z m -24.589,97.5 v 0.226 a 1.157,1.157 0 0 1 -1.157,1.156 H 39.481 a 1.157,1.157 0 0 1 -1.156,-1.156 v -0.226 a 1.158,1.158 0 0 1 1.156,-1.157 h 45.037 a 1.158,1.158 0 0 1 1.157,1.161 z M 73.2,105.9 H 50.8 l 1.8,-12.083 h 18.8 z m 43.06,-25.75 v 5.663 a 6.007,6.007 0 0 1 -6,6 H 13.737 a 6.007,6.007 0 0 1 -6,-6 v -5.659 z" />
              <path
                 id="path1548"
                 d="m 117.264,32.229 a 1,1 0 0 0 -1,1 v 10.877 a 1,1 0 1 0 2,0 V 33.229 a 1,1 0 0 0 -1,-1 z" />
              <path
                 id="path1562"
                 d="M 105.036,60.764 H 75.565 a 1,1 0 0 0 0,2 h 29.471 a 1,1 0 0 0 0,-2 z" />
              <path
                 id="path1564"
                 d="M 105.036,67.764 H 75.565 a 1,1 0 0 0 0,2 h 29.471 a 1,1 0 0 0 0,-2 z" />
              <path
                 d="M 105.036,52.926408 H 75.565 a 1,1 0 0 0 0,2 h 29.471 a 1,1 0 0 0 0,-2 z"
                 id="path1872" />
              <path
                 id="path1874"
                 d="M 105.036,45.088816 H 75.565 a 1,1 0 0 0 0,2 h 29.471 a 1,1 0 0 0 0,-2 z" />
              <path
                 d="M 105.036,37.251224 H 75.565 a 1,1 0 0 0 0,2 h 29.471 a 1,1 0 0 0 0,-2 z"
                 id="path1876" />
            </g>
          </g>
          <g
             id="g1899"
             transform="matrix(0.6133463,0,0,0.6133463,59.913709,24.031649)">
            <path
               id="rect1405"
               style="fill:#ff80e5;fill-opacity:1;stroke:none;stroke-width:0.153172"
               d="m 6.95793,2.7912929 h 4.036587 V 10.880198 H 6.95793 Z" />
            <path
               id="path1349"
               fill="#2196f3"
               d="m 9,17 c -1.103,0 -2,-0.897 -2,-2 0,-1.103 0.897,-2 2,-2 1.103,0 2,0.897 2,2 0,1.103 -0.897,2 -2,2 z"
               style="fill:#ff80e5" />
            <path
               id="path1351"
               fill="#2196f3"
               d="m 9,24 c -1.103,0 -2,-0.897 -2,-2 0,-1.103 0.897,-2 2,-2 1.103,0 2,0.897 2,2 0,1.103 -0.897,2 -2,2 z"
               style="fill:#ff80e5" />
            <path
               id="path1353"
               fill="#1d83d4"
               d="m 9,13 c -1.103,0 -2,0.897 -2,2 0,1.103 0.897,2 2,2 z" />
            <path
               id="path1355"
               fill="#1d83d4"
               d="m 9,20 c -1.103,0 -2,0.897 -2,2 0,1.103 0.897,2 2,2 z" />
            <path
               style="fill:#574290;fill-opacity:1"
               id="path1357"
               d="m 23,16 h -8 c -0.553,0 -1,-0.448 -1,-1 0,-0.552 0.447,-1 1,-1 h 8 c 0.553,0 1,0.448 1,1 0,0.552 -0.447,1 -1,1 z" />
            <path
               style="fill:#574290;fill-opacity:1"
               id="path1359"
               d="m 23,20 h -8 c -0.553,0 -1,-0.448 -1,-1 0,-0.552 0.447,-1 1,-1 h 8 c 0.553,0 1,0.448 1,1 0,0.552 -0.447,1 -1,1 z" />
            <path
               style="fill:#574290;fill-opacity:1"
               id="path1361"
               d="M 23,5 H 15 C 14.447,5 14,4.552 14,4 14,3.448 14.447,3 15,3 h 8 c 0.553,0 1,0.448 1,1 0,0.552 -0.447,1 -1,1 z" />
            <path
               style="fill:#574290;fill-opacity:1"
               id="path1363"
               d="M 23,9 H 15 C 14.447,9 14,8.552 14,8 14,7.448 14.447,7 15,7 h 8 c 0.553,0 1,0.448 1,1 0,0.552 -0.447,1 -1,1 z" />
            <path
               style="fill:#574290;fill-opacity:1"
               id="path1365"
               d="m 23,24 h -8 c -0.553,0 -1,-0.448 -1,-1 0,-0.552 0.447,-1 1,-1 h 8 c 0.553,0 1,0.448 1,1 0,0.552 -0.447,1 -1,1 z" />
            <path
               style="fill:#3a2c60;fill-opacity:1"
               id="path1369"
               fill="#546d79"
               d="m 19,14 h -4 c -0.553,0 -1,0.448 -1,1 0,0.552 0.447,1 1,1 h 4 z" />
            <path
               style="fill:#3a2c60;fill-opacity:1"
               id="path1371"
               fill="#546d79"
               d="m 19,18 h -4 c -0.553,0 -1,0.448 -1,1 0,0.552 0.447,1 1,1 h 4 z" />
            <path
               style="fill:#3a2c60;fill-opacity:1"
               id="path1373"
               fill="#546d79"
               d="m 19,3 h -4 c -0.553,0 -1,0.448 -1,1 0,0.552 0.447,1 1,1 h 4 z" />
            <path
               style="fill:#3a2c60;fill-opacity:1"
               id="path1375"
               fill="#546d79"
               d="m 19,7 h -4 c -0.553,0 -1,0.448 -1,1 0,0.552 0.447,1 1,1 h 4 z" />
            <path
               style="fill:#3a2c60;fill-opacity:1"
               id="path1377"
               fill="#546d79"
               d="m 19,22 h -4 c -0.553,0 -1,0.448 -1,1 0,0.552 0.447,1 1,1 h 4 z" />
            <path
               id="rect1407"
               style="fill:#1d83d4;fill-opacity:1;stroke:none;stroke-width:0.103734"
               d="M 5.1539978,2.7912929 H 7.0053899 V 10.880198 H 5.1539978 Z" />
          </g>
        </g>
      </g>
    </g>
  </g>
</svg>
