<?xml version="1.0" encoding="UTF-8" standalone="no"?>
<!-- Created with Inkscape (http://www.inkscape.org/) -->

<svg
   xmlns:dc="http://purl.org/dc/elements/1.1/"
   xmlns:cc="http://creativecommons.org/ns#"
   xmlns:rdf="http://www.w3.org/1999/02/22-rdf-syntax-ns#"
   xmlns:svg="http://www.w3.org/2000/svg"
   xmlns="http://www.w3.org/2000/svg"
   xmlns:sodipodi="http://sodipodi.sourceforge.net/DTD/sodipodi-0.dtd"
   xmlns:inkscape="http://www.inkscape.org/namespaces/inkscape"
   width="118mm"
   height="72mm"
   viewBox="0 0 118 71.999999"
   version="1.1"
   id="svg8"
   inkscape:version="0.92.3 (2405546, 2018-03-11)"
   sodipodi:docname="isees_logo.svg">
  <defs
     id="defs2">
    <clipPath
       id="clipPath889"
       clipPathUnits="userSpaceOnUse">
      <path
         inkscape:connector-curvature="0"
         id="path887"
         d="m 4351.93,1044.65 c 0,-515.252 417.7,-932.951 932.96,-932.951 515.25,0 932.95,417.699 932.95,932.951 0,515.26 -417.7,932.95 -932.95,932.95 -515.26,0 -932.96,-417.69 -932.96,-932.95" />
    </clipPath>
    <clipPath
       id="clipPath929"
       clipPathUnits="userSpaceOnUse">
      <path
         inkscape:connector-curvature="0"
         id="path927"
         d="m 4351.93,1044.65 c 0,-515.252 417.7,-932.951 932.96,-932.951 515.25,0 932.95,417.699 932.95,932.951 0,515.26 -417.7,932.95 -932.95,932.95 -515.26,0 -932.96,-417.69 -932.96,-932.95" />
    </clipPath>
    <clipPath
       id="clipPath935"
       clipPathUnits="userSpaceOnUse">
      <path
         inkscape:connector-curvature="0"
         id="path933"
         d="m 5090.5,849.41 c 0,0 156.4,-85.199 336.99,4.07 0,0 107.96,44.161 223.01,59.571 83.48,11.187 244.79,3.929 333.99,16.41 0,0 10.82,-288.402 -10.39,-373.25 l -119,-19.781 c 0,0 11.4,-264.961 2.92,-371.02 C 5849.53,59.3516 5089.23,-17.5313 4855.89,54.6016 l -22.96,354.0394 -266.7,118.16 c 0,0 37.15,173.687 171.6,262.23 101.46,66.821 352.67,60.379 352.67,60.379" />
    </clipPath>
    <clipPath
       id="clipPath955"
       clipPathUnits="userSpaceOnUse">
      <path
         inkscape:connector-curvature="0"
         id="path953"
         d="m 4351.93,1044.65 c 0,-515.252 417.7,-932.951 932.96,-932.951 515.25,0 932.95,417.699 932.95,932.951 0,515.26 -417.7,932.95 -932.95,932.95 -515.26,0 -932.96,-417.69 -932.96,-932.95" />
    </clipPath>
    <clipPath
       id="clipPath1119"
       clipPathUnits="userSpaceOnUse">
      <path
         inkscape:connector-curvature="0"
         id="path1117"
         d="m 2072.86,3387.24 c 0,-515.25 417.69,-932.95 932.95,-932.95 515.25,0 932.95,417.7 932.95,932.95 0,515.26 -417.7,932.95 -932.95,932.95 -515.26,0 -932.95,-417.69 -932.95,-932.95" />
    </clipPath>
    <clipPath
       id="clipPath1157"
       clipPathUnits="userSpaceOnUse">
      <path
         inkscape:connector-curvature="0"
         id="path1155"
         d="m 2072.86,3387.24 c 0,-515.25 417.69,-932.95 932.95,-932.95 515.25,0 932.95,417.7 932.95,932.95 0,515.26 -417.7,932.95 -932.95,932.95 -515.26,0 -932.95,-417.69 -932.95,-932.95" />
    </clipPath>
    <clipPath
       id="clipPath1163"
       clipPathUnits="userSpaceOnUse">
      <path
         inkscape:connector-curvature="0"
         id="path1161"
         d="m 3174.33,3000.14 c 0,0 198.22,43.09 324.62,91.93 0,0 17.24,-51.71 57.45,-71.82 40.22,-20.11 275.78,-2.87 359.09,-106.29 83.31,-103.42 37.35,-416.55 37.35,-416.55 0,0 -709.56,-106.29 -1215.16,-2.87 0,0 -5.74,327.49 114.91,382.07 120.65,54.58 336.11,17.24 321.74,123.53" />
    </clipPath>
    <clipPath
       id="clipPath1181"
       clipPathUnits="userSpaceOnUse">
      <path
         inkscape:connector-curvature="0"
         id="path1179"
         d="m 2072.86,3387.24 c 0,-515.25 417.69,-932.95 932.95,-932.95 515.25,0 932.95,417.7 932.95,932.95 0,515.26 -417.7,932.95 -932.95,932.95 -515.26,0 -932.95,-417.69 -932.95,-932.95" />
    </clipPath>
    <clipPath
       id="clipPath1203"
       clipPathUnits="userSpaceOnUse">
      <path
         inkscape:connector-curvature="0"
         id="path1201"
         d="m 2072.86,3387.24 c 0,-515.25 417.69,-932.95 932.95,-932.95 515.25,0 932.95,417.7 932.95,932.95 0,515.26 -417.7,932.95 -932.95,932.95 -515.26,0 -932.95,-417.69 -932.95,-932.95" />
    </clipPath>
    <clipPath
       id="clipPath1209"
       clipPathUnits="userSpaceOnUse">
      <path
         inkscape:connector-curvature="0"
         id="path1207"
         d="m 2331.14,2933.85 222.17,65.64 c 0,0 237.31,-666.5 176.72,-716.99 -60.59,-50.49 -166.62,-161.58 -267.61,45.44 -100.98,207.02 -131.28,605.91 -131.28,605.91" />
    </clipPath>
    <clipPath
       id="clipPath1247"
       clipPathUnits="userSpaceOnUse">
      <path
         inkscape:connector-curvature="0"
         id="path1245"
         d="m 1240.66,2927.64 c -15.08,52.46 -148.84,99.91 -221.77,115.91 C 960.547,2940.96 898.262,2886.63 782.004,2876.02 487.91,2869.85 415.988,3128.05 415.988,3128.05 22.207,3082.74 115.738,2724.52 115.738,2724.52 l 367.375,-29.14 93.539,-288.36 c 0,0 375.067,331.73 688.228,299.66 0.07,64.09 -4.28,151.62 -24.22,220.96" />
    </clipPath>
    <radialGradient
       id="radialGradient2563"
       spreadMethod="pad"
       gradientTransform="matrix(3952.14,0,0,-3749.98,2740,1950)"
       gradientUnits="userSpaceOnUse"
       r="1"
       cy="0"
       cx="0"
       fy="0"
       fx="0">
      <stop
         id="stop2559"
         offset="0"
         style="stop-opacity:1;stop-color:#ffffff" />
      <stop
         id="stop2561"
         offset="1"
         style="stop-opacity:1;stop-color:#e9ebef" />
    </radialGradient>
  </defs>
  <sodipodi:namedview
     id="base"
     pagecolor="#ffffff"
     bordercolor="#666666"
     borderopacity="1.0"
     inkscape:pageopacity="0.0"
     inkscape:pageshadow="2"
     inkscape:zoom="0.98994949"
     inkscape:cx="-309.57766"
     inkscape:cy="85.909734"
     inkscape:document-units="mm"
     inkscape:current-layer="g5597"
     showgrid="false"
     inkscape:showpageshadow="false"
     inkscape:window-width="2532"
     inkscape:window-height="1056"
     inkscape:window-x="28"
     inkscape:window-y="0"
     inkscape:window-maximized="1" />
  <metadata
     id="metadata5">
    <rdf:RDF>
      <cc:Work
         rdf:about="">
        <dc:format>image/svg+xml</dc:format>
        <dc:type
           rdf:resource="http://purl.org/dc/dcmitype/StillImage" />
        <dc:title />
      </cc:Work>
    </rdf:RDF>
  </metadata>
  <g
     inkscape:label="Livello 1"
     inkscape:groupmode="layer"
     id="layer1"
     transform="translate(0,-224.99999)">
    <g
       transform="matrix(0.35277777,0,0,-0.35277777,-190.67639,230.67777)"
       inkscape:label="ink_ext_XXXXXX"
       id="g2408">
      <g
         transform="scale(0.1)"
         id="g2410">
        <g
           transform="matrix(3220.2,0,0,3260.2,-330.1,-360.1)"
           id="g2412" />
      </g>
    </g>
    <g
       id="g5597"
       transform="matrix(0.47859459,0,0,0.47859459,-2.2601098,156.71615)">
      <path
         id="rect2304"
         d="M 10.577474,142.67575 H 245.42253 c 2.63747,0 4.76078,2.12331 4.76078,4.76078 v 140.91892 c 0,2.63747 -2.12331,4.76078 -4.76078,4.76078 H 10.577474 c -2.637469,0 -4.7607745,-2.12331 -4.7607745,-4.76078 V 147.43653 c 0,-2.63747 2.1233055,-4.76078 4.7607745,-4.76078 z"
         style="fill:#ffffff;fill-opacity:1;stroke:none;stroke-width:0.95215493;stroke-linecap:square;stroke-opacity:1"
         inkscape:connector-curvature="0" />
      <path
         sodipodi:nodetypes="sssccss"
         inkscape:connector-curvature="0"
         id="rect2306"
         d="m 10.8167,142.67575 h 234.36661 c 2.77,0 5,2.49451 5,5.59306 v 19.11165 H 5.8166995 v -19.11165 c 0,-3.09855 2.23,-5.59306 5.0000005,-5.59306 z"
         style="fill:#c65858;fill-opacity:1;stroke:none;stroke-width:0.38777629;stroke-linecap:square;stroke-opacity:1" />
      <rect
         y="178.69345"
         x="23.8125"
         height="78.997025"
         width="62.744045"
         id="rect2309"
         style="fill:#ffffff;fill-opacity:1;stroke:none;stroke-width:1.12206781;stroke-linecap:square;stroke-opacity:1" />
      <path
         inkscape:connector-curvature="0"
         id="path2155"
         style="fill:#2b1100;fill-opacity:1;fill-rule:nonzero;stroke:none;stroke-width:0.04119651"
         d="m 75.315052,193.5206 c 0,0 5.799229,0.9467 6.153929,8.52067 0.355121,7.5744 -3.195196,22.60412 -12.30787,25.20774 v -0.9467 c 0,0 -1.65692,2.72185 -8.165561,-0.94669 -6.50905,-3.66896 14.319502,-31.83502 14.319502,-31.83502" />
      <path
         inkscape:connector-curvature="0"
         id="path2157"
         style="fill:#f78e92;fill-opacity:1;fill-rule:nonzero;stroke:none;stroke-width:0.04119651"
         d="m 60.99555,228.07747 c 0.201044,0.22453 0.596943,0.41073 1.131667,0.57551 -5.631151,1.14857 -11.115221,0.80993 -15.285544,-3.12805 4.457864,-4.49042 6.055883,-18.31968 6.055883,-18.31968 l 8.912447,12.52499 1.390797,-1.18193 c 0,0 -3.92397,7.61064 -2.20525,9.52916" />
      <path
         inkscape:connector-curvature="0"
         id="path2159"
         style="fill:#b4bdc6;fill-opacity:1;fill-rule:nonzero;stroke:none;stroke-width:0.04119651"
         d="m 60.564221,226.68998 c -0.01238,-0.45646 0.04578,-0.97308 0.15202,-1.51934 -8.29e-4,-8.1e-4 -8.29e-4,-8.1e-4 -0.0012,-0.001 -0.106735,0.54626 -0.165205,1.06328 -0.152839,1.52015 8.18e-4,0 0.0012,4.1e-4 0.0023,4.1e-4 m -9.595491,-9.79777 c 1.362782,-4.83565 1.921002,-9.6169 1.928826,-9.68612 -0.0082,0.0692 -0.567282,4.85006 -1.928826,9.68612 m 1.928476,-9.68612 c 0,-4.1e-4 0,-8.3e-4 0,-8.3e-4 0,0 0,4.2e-4 0,8.3e-4" />
      <path
         inkscape:connector-curvature="0"
         id="path2161"
         style="fill:#d9ac95;fill-opacity:1;fill-rule:nonzero;stroke:none;stroke-width:0.04119651"
         d="m 60.716241,225.17064 c 0.5578,-2.86439 2.44378,-6.54324 2.483741,-6.62109 -0.03994,0.0782 -1.92635,3.75547 -2.485387,6.61986 8.17e-4,4.2e-4 8.17e-4,4.2e-4 0.0012,0.001 m 2.484628,-6.62151 c 0,0 0,-4.1e-4 4.09e-4,-4.1e-4 -4.09e-4,0 -4.09e-4,4.1e-4 -4.09e-4,4.1e-4 m 4.09e-4,-4.1e-4 v 0 0 m 0,-4.1e-4 v 0 0 0" />
      <path
         inkscape:connector-curvature="0"
         id="path2163"
         style="fill:#ee7c7e;fill-opacity:1;fill-rule:nonzero;stroke:none;stroke-width:0.04119651"
         d="m 60.561757,226.68956 c -0.01238,-0.45687 0.04613,-0.97388 0.152838,-1.52015 0.559037,-2.86439 2.445426,-6.5416 2.485387,-6.61986 4.09e-4,0 4.09e-4,-4.2e-4 4.09e-4,-4.2e-4 0,0 0,-4.1e-4 4.09e-4,-4.1e-4 v 0 0 c 0,-4.1e-4 0,-4.1e-4 0,-4.1e-4 v 0 l -1.390797,1.18193 -8.912447,-12.52499 v 0 c 0,0 0,4.2e-4 0,8.3e-4 v 0 c -0.0082,0.0693 -0.566044,4.85048 -1.928826,9.68612 -0.07123,0.25336 -0.144594,0.50673 -0.220394,0.76009 1.320345,4.1011 4.5724,7.05325 8.467945,8.72047 0.528547,0.1273 0.984586,0.23358 1.345476,0.3168" />
      <path
         inkscape:connector-curvature="0"
         id="path2165"
         style="fill:#f78e92;fill-opacity:1;fill-rule:nonzero;stroke:none;stroke-width:0.04119651"
         d="m 72.996505,193.18609 c -6.483919,-3.5738 -14.374691,-2.34079 -18.2278,3.72128 0,0 -0.490244,1.4806 -1.005606,3.7291 -1.642102,-1.30427 -2.483741,-0.0622 -3.348875,4.87643 -0.968938,5.53352 1.497496,5.63816 2.192486,5.50139 0.09109,2.55006 0.500531,3.81109 1.406036,5.93848 4.148077,9.74338 15.722233,9.21854 20.710723,-0.3547 6.640459,-12.74414 2.958733,-20.82897 -1.726964,-23.41198" />
      <path
         inkscape:connector-curvature="0"
         id="path2167"
         style="fill:#2b1100;fill-opacity:1;fill-rule:nonzero;stroke:none;stroke-width:0.04119651"
         d="m 77.445319,197.18915 c 0,0 -0.355109,6.15393 -9.349137,6.50905 l 2.130267,-2.13027 c 0,0 -4.024071,1.77515 -11.479812,0.11823 l 0.710229,-1.18316 c 0,0 -7.100632,10.53271 -4.615654,20.47384 0,0 -5.443711,-2.8405 -1.183166,-16.33194 0,0 -1.904933,-2.95091 -2.958733,0 -1.183575,3.31385 -0.236883,4.61565 1.538275,6.50904 0,0 -0.828046,6.74552 0.355108,9.2309 0,0 -6.035691,-2.84008 -6.627275,-8.04732 -0.591583,-5.20724 1.301813,-18.93516 10.769584,-23.55081 9.467373,-4.61565 19.881848,-0.94669 20.710314,8.40244" />
      <path
         inkscape:connector-curvature="0"
         id="path2169"
         style="fill:#f47074;fill-opacity:1;fill-rule:nonzero;stroke:none;stroke-width:0.04119651"
         d="m 69.023513,209.44552 c -0.07626,0.38231 -0.09599,0.76296 -0.100546,1.14114 -8.29e-4,0.37861 0.02919,0.75391 0.06843,1.1288 l 0.08817,0.55861 c 0.02931,0.18581 0.08034,0.36913 0.121939,0.55369 0.08408,0.36747 0.214228,0.73 0.353053,1.08387 l 0.149137,-0.30567 c -0.442447,0.20763 -0.882838,0.42103 -1.319936,0.64225 -0.437507,0.22081 -0.871721,0.44864 -1.299746,0.69251 0.477048,-0.12234 0.94793,-0.26077 1.415507,-0.4062 0.467998,-0.145 0.93269,-0.29826 1.395328,-0.45686 l 0.183738,-0.0631 -0.03457,-0.24266 c -0.02592,-0.1829 -0.04403,-0.36664 -0.08069,-0.54544 -0.03795,-0.17755 -0.05068,-0.36335 -0.0898,-0.54214 -0.06586,-0.36006 -0.131818,-0.72217 -0.210515,-1.08223 -0.07707,-0.36088 -0.16684,-0.72053 -0.265715,-1.08017 -0.107902,-0.35923 -0.21751,-0.71806 -0.373653,-1.07647" />
      <path
         inkscape:connector-curvature="0"
         id="path2171"
         style="fill:#f47074;fill-opacity:1;fill-rule:nonzero;stroke:none;stroke-width:0.04119651"
         d="m 51.677721,209.31288 c -0.03667,-0.21464 -0.07789,-0.41857 -0.101713,-0.6196 -0.0093,-0.10008 -0.02756,-0.19733 -0.02639,-0.29249 -0.0023,-0.047 -0.0023,-0.0947 0,-0.13801 0.0035,-0.0432 -0.0023,-0.0906 0.0082,-0.12813 0.0093,-0.0823 0.03748,-0.14872 0.06306,-0.19485 l 0.04449,-0.0499 0.05068,-0.0297 0.06878,-0.0227 0.09891,-0.0117 c 0.02838,-0.0105 0.07626,8.2e-4 0.114909,0.001 l 0.12153,0.002 0.216693,0.006 0.100895,-0.16561 c 0.07287,-0.11989 0.122348,-0.22452 0.175085,-0.34028 0.05185,-0.11293 0.09436,-0.2303 0.134306,-0.34852 0.07707,-0.2373 0.131818,-0.48653 0.139654,-0.74485 0.0047,-0.0639 0.0047,-0.12852 -4.21e-4,-0.19402 -0.0058,-0.066 -0.0023,-0.12895 -0.01565,-0.19487 -0.02055,-0.13018 -0.0564,-0.25747 -0.105917,-0.38024 -0.0202,-0.0618 -0.06423,-0.11741 -0.09517,-0.17384 -0.03048,-0.0569 -0.07123,-0.10791 -0.118225,-0.15367 -0.04659,-0.0453 -0.08443,-0.0944 -0.140483,-0.12689 l -0.158199,-0.0952 0.07544,0.16232 c 0.02966,0.0474 0.03877,0.10674 0.05477,0.15861 0.01565,0.052 0.03258,0.1009 0.03503,0.15613 0.0047,0.0539 0.01693,0.10172 0.01401,0.15532 0.0058,0.10335 -8.18e-4,0.20474 -0.01892,0.30732 -0.0012,0.0494 -0.01775,0.10171 -0.02557,0.15201 -0.0082,0.0502 -0.02055,0.10055 -0.03667,0.15078 -0.05524,0.20022 -0.125232,0.40002 -0.210515,0.59653 -0.04076,0.0984 -0.08735,0.19527 -0.132238,0.2925 -0.04613,0.0939 -0.09844,0.19733 -0.142539,0.27724 l 0.317214,-0.16025 -0.189086,-0.002 c -0.0647,0.004 -0.121951,-0.005 -0.194458,0.0148 l -0.206801,0.0469 c -0.07042,0.028 -0.143368,0.0704 -0.211344,0.10954 -0.06843,0.0388 -0.126061,0.11292 -0.181262,0.17384 -0.05477,0.0639 -0.07824,0.14378 -0.112457,0.21629 -0.02884,0.0733 -0.02884,0.1446 -0.03994,0.21628 -0.0082,0.0709 0.0035,0.13265 0.0058,0.19816 0.0023,0.0659 0.02184,0.1207 0.03211,0.18126 0.0093,0.0598 0.03375,0.11327 0.0536,0.16726 0.03912,0.10919 0.08653,0.20928 0.141312,0.30568 0.110355,0.19115 0.238518,0.36746 0.397126,0.51824" />
      <path
         inkscape:connector-curvature="0"
         id="path2173"
         style="fill:#29202e;fill-opacity:1;fill-rule:nonzero;stroke:none;stroke-width:0.04119651"
         d="m 60.550219,206.90947 c -0.126891,0.92733 0.09926,1.72449 0.505074,1.77969 0.405779,0.0556 0.837517,-0.65132 0.964407,-1.57865 0.126879,-0.92775 -0.09926,-1.72449 -0.505074,-1.78011 -0.405779,-0.0552 -0.837517,0.65174 -0.964407,1.57907" />
      <path
         inkscape:connector-curvature="0"
         id="path2175"
         style="fill:#29202e;fill-opacity:1;fill-rule:nonzero;stroke:none;stroke-width:0.04119651"
         d="m 71.552575,209.09371 c -0.183329,0.91786 -0.007,1.72695 0.395069,1.80728 0.401668,0.0803 0.875843,-0.59898 1.059161,-1.51684 0.183329,-0.91786 0.0058,-1.72738 -0.39507,-1.8073 -0.401668,-0.0803 -0.875843,0.599 -1.05916,1.51686" />
      <path
         inkscape:connector-curvature="0"
         id="path2177"
         style="fill:#29202e;fill-opacity:1;fill-rule:nonzero;stroke:none;stroke-width:0.04119651"
         d="m 64.884509,204.05703 c 0,0 -0.140892,-0.40868 -0.566452,-0.87709 -0.10872,-0.11292 -0.223291,-0.24387 -0.369122,-0.35264 -0.138008,-0.11946 -0.294151,-0.23522 -0.467589,-0.33863 -0.168895,-0.11082 -0.365,-0.19321 -0.561093,-0.28055 -0.206801,-0.0639 -0.411547,-0.14913 -0.634837,-0.17591 l -0.330399,-0.0474 c -0.110822,-0.009 -0.223278,-0.001 -0.333283,-8.2e-4 -0.220803,-0.009 -0.434202,0.0408 -0.637722,0.0853 -0.206801,0.0297 -0.386416,0.13141 -0.559025,0.20145 -0.177152,0.0626 -0.319282,0.17096 -0.450283,0.26489 -0.129354,0.0956 -0.252951,0.17097 -0.336984,0.27272 -0.09062,0.0923 -0.16273,0.17961 -0.221644,0.24966 -0.117408,0.14047 -0.173847,0.22699 -0.173847,0.22699 0,0 0.107903,-0.0218 0.279309,-0.0709 0.0849,-0.0251 0.188268,-0.0528 0.298681,-0.0931 0.10837,-0.045 0.24883,-0.0515 0.381886,-0.0914 0.137599,-0.0313 0.280546,-0.072 0.436269,-0.0849 0.155314,-0.0144 0.310628,-0.0539 0.475822,-0.0461 0.163558,-0.004 0.328343,-0.0186 0.49683,0.004 l 0.252951,0.0165 0.253361,0.045 c 0.171791,0.0119 0.335747,0.0828 0.505483,0.11211 0.162718,0.0593 0.331625,0.0989 0.488585,0.16354 0.157778,0.0623 0.316806,0.11456 0.461809,0.18333 0.148307,0.0671 0.288382,0.13019 0.418145,0.18827 0.264489,0.13141 0.484883,0.241 0.639368,0.31763 0.161492,0.082 0.253781,0.12853 0.253781,0.12853" />
      <path
         inkscape:connector-curvature="0"
         id="path2179"
         style="fill:#29202e;fill-opacity:1;fill-rule:nonzero;stroke:none;stroke-width:0.04119651"
         d="m 76.502329,206.68495 c 0,0 -0.115726,-0.4165 -0.511661,-0.91003 -0.101713,-0.11948 -0.208447,-0.25707 -0.347284,-0.37447 -0.130184,-0.12772 -0.2789,-0.25296 -0.445752,-0.36707 -0.1619,-0.12029 -0.352633,-0.21505 -0.542968,-0.31392 -0.202271,-0.0763 -0.401656,-0.17426 -0.622891,-0.21463 l -0.327094,-0.0676 c -0.110005,-0.0156 -0.222461,-0.0144 -0.332045,-0.021 -0.219986,-0.0227 -0.436269,0.014 -0.641845,0.0458 -0.208447,0.0173 -0.393832,0.10836 -0.570574,0.16724 -0.180433,0.0515 -0.329161,0.1512 -0.465522,0.23689 -0.134703,0.0874 -0.262831,0.1549 -0.353462,0.25171 -0.09599,0.0861 -0.17303,0.16932 -0.236054,0.23523 -0.125653,0.13306 -0.18744,0.21628 -0.18744,0.21628 0,0 0.109187,-0.0153 0.28301,-0.054 0.08653,-0.0197 0.191153,-0.0412 0.303622,-0.0742 0.111172,-0.0383 0.251714,-0.0367 0.387246,-0.0684 0.139245,-0.0226 0.284259,-0.0548 0.4408,-0.058 0.155314,-0.005 0.313104,-0.0346 0.477468,-0.0169 0.163558,0.007 0.328752,0.001 0.495604,0.0342 l 0.251702,0.0321 0.250067,0.0601 c 0.170554,0.0227 0.329978,0.10335 0.497659,0.14255 0.159016,0.0692 0.324618,0.11906 0.477457,0.19362 0.153667,0.0717 0.30939,0.13388 0.449465,0.21134 0.144185,0.0758 0.280125,0.14707 0.406187,0.2134 0.255836,0.14748 0.469235,0.27025 0.61878,0.35594 0.156132,0.0914 0.245525,0.14376 0.245525,0.14376" />
      <path
         inkscape:connector-curvature="0"
         id="path2181"
         style="fill:#f47074;fill-opacity:1;fill-rule:nonzero;stroke:none;stroke-width:0.04119651"
         d="m 68.091651,217.63622 c 0,0 -0.128537,-0.0124 -0.348522,-0.044 -0.219577,-0.0293 -0.530193,-0.0754 -0.896431,-0.14089 -0.183738,-0.03 -0.379842,-0.0733 -0.586643,-0.11456 -0.207631,-0.0362 -0.420621,-0.10627 -0.644308,-0.14831 -0.438336,-0.12811 -0.908798,-0.24759 -1.354129,-0.43421 -0.229468,-0.0763 -0.450691,-0.17137 -0.664919,-0.27354 -0.218339,-0.0935 -0.425141,-0.20104 -0.626185,-0.30691 -0.205154,-0.0993 -0.388483,-0.21958 -0.569745,-0.32504 -0.183329,-0.10382 -0.348943,-0.2134 -0.498897,-0.32134 -0.148308,-0.10872 -0.2995,-0.19485 -0.419792,-0.28755 -0.116544,-0.096 -0.224516,-0.1755 -0.313092,-0.24265 -0.177969,-0.13306 -0.287133,-0.20681 -0.287133,-0.20681 0,0 0.06224,0.11129 0.182909,0.30198 0.06096,0.0944 0.134714,0.21133 0.226163,0.34028 0.09144,0.12935 0.213399,0.2583 0.344412,0.40331 0.06586,0.072 0.134703,0.1479 0.205984,0.22576 0.07462,0.0742 0.161071,0.14007 0.245524,0.21422 0.1722,0.14336 0.346876,0.30857 0.559446,0.43256 0.207222,0.13059 0.413206,0.2855 0.650498,0.38848 0.229876,0.11865 0.467168,0.23153 0.713931,0.32093 0.244298,0.0963 0.49725,0.16479 0.74525,0.23399 0.246354,0.0762 0.500952,0.0993 0.73947,0.14831 0.242652,0.0288 0.476651,0.0572 0.70035,0.0606 0.222461,0.0127 0.432976,0.009 0.627002,-0.005 0.777388,-0.035 1.268857,-0.22039 1.268857,-0.22039" />
      <path
         inkscape:connector-curvature="0"
         id="path2183"
         style="fill:#c65858;fill-opacity:1;fill-rule:nonzero;stroke:none;stroke-width:0.04119651"
         d="m 61.468896,226.89389 c 0,0 -8.165971,-1.77515 -13.373208,-3.7872 0,0 -0.710229,2.13028 -2.366741,2.95874 -1.656921,0.82846 -11.361166,0.11823 -14.793257,4.37878 -3.432079,4.26055 -1.538684,17.16041 -1.538684,17.16041 0,0 29.231394,4.37877 50.060354,0.11823 0,0 0.236463,-13.49144 -4.733891,-15.73994 -4.970366,-2.24852 -13.846565,-0.71023 -13.254573,-5.08902" />
      <g
         clip-path="url(#clipPath1163)"
         id="g2195"
         transform="matrix(-0.04119651,0,0,-0.04119651,192.24022,350.48919)">
        <path
           inkscape:connector-curvature="0"
           id="path2185"
           style="fill:#29202e;fill-opacity:1;fill-rule:nonzero;stroke:none"
           d="m 2736.65,2939.91 0.18,-0.01 c 7.87,0.01 222.52,4.46 486.09,31.74 263.57,27.29 575.85,77.32 779.15,168.83 l -2.36,5.24 c -202.06,-91.01 -514.11,-141.13 -777.38,-168.36 -263.27,-27.25 -477.97,-31.7 -485.5,-31.7 h -0.1 l -0.08,-5.74" />
        <path
           inkscape:connector-curvature="0"
           id="path2187"
           style="fill:#29202e;fill-opacity:1;fill-rule:nonzero;stroke:none"
           d="m 2734.94,2823.71 h 0.18 c 7.87,0.01 222.52,4.46 486.09,31.73 263.57,27.3 575.85,77.33 779.15,168.84 l -2.36,5.23 c -202.06,-91 -514.11,-141.12 -777.38,-168.35 -263.27,-27.25 -477.97,-31.7 -485.5,-31.7 h -0.1 l -0.08,-5.75" />
        <path
           inkscape:connector-curvature="0"
           id="path2189"
           style="fill:#29202e;fill-opacity:1;fill-rule:nonzero;stroke:none"
           d="m 2733.23,2707.52 h 0.18 c 7.87,0 222.52,4.45 486.09,31.73 263.57,27.3 575.85,77.33 779.15,168.83 l -2.36,5.24 c -202.06,-91 -514.11,-141.12 -777.38,-168.35 -263.26,-27.26 -477.97,-31.71 -485.5,-31.7 h -0.1 l -0.08,-5.75" />
        <path
           inkscape:connector-curvature="0"
           id="path2191"
           style="fill:#29202e;fill-opacity:1;fill-rule:nonzero;stroke:none"
           d="m 2731.52,2591.33 h 0.18 c 7.87,0 222.52,4.45 486.09,31.73 263.57,27.29 575.85,77.33 779.15,168.83 l -2.36,5.24 c -202.07,-91 -514.11,-141.13 -777.38,-168.36 -263.27,-27.25 -477.97,-31.7 -485.5,-31.7 h -0.11 l -0.07,-5.74" />
        <path
           inkscape:connector-curvature="0"
           id="path2193"
           style="fill:#29202e;fill-opacity:1;fill-rule:nonzero;stroke:none"
           d="m 2729.81,2475.14 0.17,-0.01 c 7.87,0.01 222.52,4.46 486.1,31.74 263.56,27.29 575.85,77.33 779.15,168.83 l -2.36,5.24 c -202.07,-91.01 -514.11,-141.13 -777.38,-168.36 -263.27,-27.25 -477.97,-31.7 -485.51,-31.7 h -0.1 l -0.07,-5.74" />
      </g>
      <path
         inkscape:connector-curvature="0"
         id="path2199"
         style="fill:#a54141;fill-opacity:1;fill-rule:nonzero;stroke:none;stroke-width:0.04119651"
         d="m 66.477156,249.33322 c 3.130945,-0.18868 6.242516,-0.49312 9.236259,-0.94751 -3.659071,-0.16068 -9.448829,-0.49642 -15.964465,-1.17081 -1.913995,-0.19815 -3.890606,-0.42557 -5.893574,-0.68592 3.923549,1.60666 8.174204,2.58343 12.62178,2.80424 m 10.416132,-1.13537 c 0.802098,-0.13431 1.594714,-0.27931 2.375804,-0.4371 0.04484,-0.009 0.09062,-0.0181 0.135123,-0.0272 0.01775,-0.004 0.03538,-0.007 0.05313,-0.0105 v 0 0 0 0 c 0,-4.1e-4 0,-4.1e-4 0,-4.1e-4 v 0 c 0,0 0,0 0,-4.1e-4 v 0 c 0,-4.2e-4 0,-8.3e-4 0,-0.001 v 0 c 8.17e-4,-0.0642 0.02592,-1.74303 -0.154894,-3.99277 -1.874863,-0.0437 -9.949373,-0.29826 -19.623968,-1.29975 -0.491879,-0.051 -0.987062,-0.10381 -1.486368,-0.1586 -1.440228,0.22451 -2.845856,0.41567 -4.185983,0.59406 -1.909452,0.25458 -3.825911,0.53925 -5.746492,0.81691 1.524262,0.94011 3.119804,1.77764 4.775908,2.50105 2.291758,0.30815 4.555093,0.57222 6.737688,0.79798 7.252642,0.75059 13.610499,1.0814 17.120037,1.21817 m 2.389396,-4.70703 c -0.119475,-1.40151 -0.31927,-3.00282 -0.651724,-4.56539 -1.294817,-0.0371 -3.761251,-0.12607 -6.983224,-0.31474 -3.889777,1.81675 -8.343531,2.8236 -12.566999,3.51694 0.20763,0.0222 0.415669,0.044 0.622074,0.0655 9.623085,0.99614 17.671238,1.25279 19.579873,1.29769 m -0.703631,-4.80351 c -0.302384,-1.3599 -0.708174,-2.68148 -1.251972,-3.80326 -1.528804,1.42168 -3.308073,2.57271 -5.236899,3.51489 2.963265,0.16931 5.242259,0.25212 6.488871,0.28837" />
      <path
         inkscape:connector-curvature="0"
         id="path2201"
         style="fill:#291b24;fill-opacity:1;fill-rule:nonzero;stroke:none;stroke-width:0.04119651"
         d="m 78.630961,238.92534 c -0.01693,-0.0795 -0.03422,-0.15861 -0.05185,-0.23812 -1.246612,-0.0362 -3.525606,-0.11906 -6.48887,-0.28837 -0.146661,0.072 -0.29414,0.14213 -0.442447,0.21175 3.221973,0.18868 5.688407,0.27766 6.983224,0.31474" />
      <path
         inkscape:connector-curvature="0"
         id="path2203"
         style="fill:#291b24;fill-opacity:1;fill-rule:nonzero;stroke:none;stroke-width:0.04119651"
         d="m 79.302455,243.72802 c -0.0058,-0.0782 -0.01273,-0.15777 -0.01973,-0.23729 -1.908635,-0.045 -9.956789,-0.30155 -19.579874,-1.29769 -0.206404,-0.0214 -0.414443,-0.0432 -0.622073,-0.0655 -0.297433,0.049 -0.594048,0.0963 -0.888607,0.14213 0.499305,0.0548 0.994489,0.10755 1.486367,0.15861 9.674596,1.00148 17.749106,1.25608 19.623969,1.29974" />
      <path
         inkscape:connector-curvature="0"
         id="path2205"
         style="fill:#291b24;fill-opacity:1;fill-rule:nonzero;stroke:none;stroke-width:0.04119651"
         d="m 75.713415,248.38571 c 0.395899,-0.0601 0.788505,-0.12236 1.179873,-0.18786 -3.509537,-0.13677 -9.867395,-0.46758 -17.120037,-1.21818 -2.182594,-0.22577 -4.445929,-0.48983 -6.737688,-0.79798 0.272314,0.11906 0.544207,0.2344 0.819813,0.34729 2.002968,0.26035 3.979579,0.48777 5.893574,0.68592 6.515636,0.67439 12.305394,1.01013 15.964465,1.17081" />
      <text
         id="text2496"
         y="241.73952"
         x="100.05084"
         style="font-style:normal;font-variant:normal;font-weight:normal;font-stretch:normal;font-size:4.15541697px;line-height:1.25;font-family:'Futura Hv BT';-inkscape-font-specification:'Futura Hv BT';letter-spacing:0px;word-spacing:0px;fill:#000000;fill-opacity:1;stroke:none;stroke-width:0.15582813"
         xml:space="preserve"><tspan
           style="text-align:start;text-anchor:start;stroke-width:0.15582813"
           y="241.73952"
           x="100.05084"
           id="tspan2494"
           sodipodi:role="line">Lorem Ipsum è un testo segnaposto </tspan><tspan
           id="tspan2500"
           style="text-align:start;text-anchor:start;stroke-width:0.15582813"
           y="246.93379"
           x="100.05084"
           sodipodi:role="line">utilizzato nel settore della tipografia e della stampa. </tspan><tspan
           id="tspan2502"
           style="text-align:start;text-anchor:start;stroke-width:0.15582813"
           y="252.12807"
           x="100.05084"
           sodipodi:role="line">Lorem Ipsum è considerato il testo segnaposto standard</tspan><tspan
           id="tspan2512"
           style="stroke-width:0.15582813"
           y="257.32233"
           x="100.05084"
           sodipodi:role="line">quando un anonimo tipografo prese una cassetta di caratteri </tspan></text>
      <text
         id="text2520"
         y="188.97096"
         x="99.085564"
         style="font-style:normal;font-variant:normal;font-weight:normal;font-stretch:normal;font-size:13.14372253px;line-height:1.25;font-family:'Futura Hv BT';-inkscape-font-specification:'Futura Hv BT';letter-spacing:0px;word-spacing:0px;fill:#000000;fill-opacity:1;stroke:none;stroke-width:0.49288955"
         xml:space="preserve"><tspan
           style="stroke-width:0.49288955"
           y="188.97096"
           x="99.085564"
           id="tspan2518"
           sodipodi:role="line">Rossi</tspan></text>
      <text
         xml:space="preserve"
         style="font-style:normal;font-variant:normal;font-weight:normal;font-stretch:normal;font-size:13.14372253px;line-height:1.25;font-family:'Futura Hv BT';-inkscape-font-specification:'Futura Hv BT';letter-spacing:0px;word-spacing:0px;fill:#000000;fill-opacity:1;stroke:none;stroke-width:0.49288955"
         x="99.085564"
         y="205.22394"
         id="text2524"><tspan
           sodipodi:role="line"
           id="tspan2522"
           x="99.085564"
           y="205.22394"
           style="stroke-width:0.49288955">Adelina</tspan></text>
      <g
         id="g5711"
         transform="translate(0,-5.5283395)">
        <path
           d="m 18.423075,288.65529 h -1.822693 v -13.91234 h 1.822693 v 13.91234"
           style="fill:#333333;fill-opacity:1;fill-rule:nonzero;stroke:none;stroke-width:0.14765806"
           id="path4484"
           inkscape:connector-curvature="0" />
        <path
           d="m 23.201732,288.65529 h -1.81974 v -13.91234 h 1.81974 v 13.91234"
           style="fill:#333333;fill-opacity:1;fill-rule:nonzero;stroke:none;stroke-width:0.14765806"
           id="path4486"
           inkscape:connector-curvature="0" />
        <path
           d="m 20.150525,288.65529 h -0.911344 v -13.91234 h 0.911344 v 13.91234"
           style="fill:#333333;fill-opacity:1;fill-rule:nonzero;stroke:none;stroke-width:0.14765806"
           id="path4488"
           inkscape:connector-curvature="0" />
        <path
           d="m 24.868645,288.65529 h -0.910167 v -13.91234 h 0.910167 v 13.91234"
           style="fill:#333333;fill-opacity:1;fill-rule:nonzero;stroke:none;stroke-width:0.14765806"
           id="path4490"
           inkscape:connector-curvature="0" />
        <path
           d="m 33.128342,288.65529 h -0.909573 v -13.91234 h 0.909573 v 13.91234"
           style="fill:#333333;fill-opacity:1;fill-rule:nonzero;stroke:none;stroke-width:0.14765806"
           id="path4492"
           inkscape:connector-curvature="0" />
        <path
           d="m 34.466418,288.65529 h -0.911344 v -13.91234 h 0.911344 v 13.91234"
           style="fill:#333333;fill-opacity:1;fill-rule:nonzero;stroke:none;stroke-width:0.14765806"
           id="path4494"
           inkscape:connector-curvature="0" />
        <path
           d="m 36.296642,288.65529 h -0.911349 v -13.91234 h 0.911349 v 13.91234"
           style="fill:#333333;fill-opacity:1;fill-rule:nonzero;stroke:none;stroke-width:0.14765806"
           id="path4496"
           inkscape:connector-curvature="0" />
        <path
           d="m 48.31512,288.65529 h -0.911197 v -13.91234 h 0.911197 v 13.91234"
           style="fill:#333333;fill-opacity:1;fill-rule:nonzero;stroke:none;stroke-width:0.14765806"
           id="path4498"
           inkscape:connector-curvature="0" />
        <path
           d="m 59.30546,288.65529 h -0.91105 v -13.91234 h 0.91105 v 13.91234"
           style="fill:#333333;fill-opacity:1;fill-rule:nonzero;stroke:none;stroke-width:0.14765806"
           id="path4500"
           inkscape:connector-curvature="0" />
        <path
           d="M 65.301853,288.65529 H 64.38785 v -13.91234 h 0.914003 v 13.91234"
           style="fill:#333333;fill-opacity:1;fill-rule:nonzero;stroke:none;stroke-width:0.14765806"
           id="path4502"
           inkscape:connector-curvature="0" />
        <path
           d="m 74.73868,288.65529 h -0.91105 v -13.91234 h 0.91105 v 13.91234"
           style="fill:#333333;fill-opacity:1;fill-rule:nonzero;stroke:none;stroke-width:0.14765806"
           id="path4504"
           inkscape:connector-curvature="0" />
        <path
           d="m 82.348977,288.65529 h -0.91105 v -13.91234 h 0.91105 v 13.91234"
           style="fill:#333333;fill-opacity:1;fill-rule:nonzero;stroke:none;stroke-width:0.14765806"
           id="path4506"
           inkscape:connector-curvature="0" />
        <path
           d="m 87.655805,288.65529 h -0.909573 v -13.91234 h 0.909573 v 13.91234"
           style="fill:#333333;fill-opacity:1;fill-rule:nonzero;stroke:none;stroke-width:0.14765806"
           id="path4508"
           inkscape:connector-curvature="0" />
        <path
           d="m 89.333201,288.65529 h -0.911049 v -13.91234 h 0.911049 v 13.91234"
           style="fill:#333333;fill-opacity:1;fill-rule:nonzero;stroke:none;stroke-width:0.14765806"
           id="path4510"
           inkscape:connector-curvature="0" />
        <path
           d="m 95.559943,288.65529 h -0.91105 v -13.91234 h 0.91105 v 13.91234"
           style="fill:#333333;fill-opacity:1;fill-rule:nonzero;stroke:none;stroke-width:0.14765806"
           id="path4512"
           inkscape:connector-curvature="0" />
        <path
           d="m 102.67116,288.65529 h -0.91105 v -13.91234 h 0.91105 v 13.91234"
           style="fill:#333333;fill-opacity:1;fill-rule:nonzero;stroke:none;stroke-width:0.14765806"
           id="path4514"
           inkscape:connector-curvature="0" />
        <path
           d="m 109.40879,288.65529 h -0.91105 v -13.91234 h 0.91105 v 13.91234"
           style="fill:#333333;fill-opacity:1;fill-rule:nonzero;stroke:none;stroke-width:0.14765806"
           id="path4516"
           inkscape:connector-curvature="0" />
        <path
           d="m 117.9198,288.65529 h -0.91548 v -13.91234 h 0.91548 v 13.91234"
           style="fill:#333333;fill-opacity:1;fill-rule:nonzero;stroke:none;stroke-width:0.14765806"
           id="path4518"
           inkscape:connector-curvature="0" />
        <path
           d="m 124.53193,288.65529 h -0.91105 v -13.91234 h 0.91105 v 13.91234"
           style="fill:#333333;fill-opacity:1;fill-rule:nonzero;stroke:none;stroke-width:0.14765806"
           id="path4520"
           inkscape:connector-curvature="0" />
        <path
           d="m 132.66199,288.65529 h -0.91106 v -13.91234 h 0.91106 v 13.91234"
           style="fill:#333333;fill-opacity:1;fill-rule:nonzero;stroke:none;stroke-width:0.14765806"
           id="path4522"
           inkscape:connector-curvature="0" />
        <path
           d="m 134.81336,288.65529 h -0.91105 v -13.91234 h 0.91105 v 13.91234"
           style="fill:#333333;fill-opacity:1;fill-rule:nonzero;stroke:none;stroke-width:0.14765806"
           id="path4524"
           inkscape:connector-curvature="0" />
        <path
           d="m 138.5624,288.65529 h -0.914 v -13.91234 h 0.914 v 13.91234"
           style="fill:#333333;fill-opacity:1;fill-rule:nonzero;stroke:none;stroke-width:0.14765806"
           id="path4526"
           inkscape:connector-curvature="0" />
        <path
           d="m 149.61608,288.65529 h -0.91252 v -13.91234 h 0.91252 v 13.91234"
           style="fill:#333333;fill-opacity:1;fill-rule:nonzero;stroke:none;stroke-width:0.14765806"
           id="path4528"
           inkscape:connector-curvature="0" />
        <path
           d="m 156.32124,288.65529 h -0.9081 v -13.91234 h 0.9081 v 13.91234"
           style="fill:#333333;fill-opacity:1;fill-rule:nonzero;stroke:none;stroke-width:0.14765806"
           id="path4530"
           inkscape:connector-curvature="0" />
        <path
           d="m 172.34657,288.65529 h -0.91105 v -13.91234 h 0.91105 v 13.91234"
           style="fill:#333333;fill-opacity:1;fill-rule:nonzero;stroke:none;stroke-width:0.14765806"
           id="path4532"
           inkscape:connector-curvature="0" />
        <path
           d="m 167.68795,288.65529 h -0.91105 v -13.91234 h 0.91105 v 13.91234"
           style="fill:#333333;fill-opacity:1;fill-rule:nonzero;stroke:none;stroke-width:0.14765806"
           id="path4534"
           inkscape:connector-curvature="0" />
        <path
           d="m 181.16766,288.65529 h -0.914 v -13.91234 h 0.914 v 13.91234"
           style="fill:#333333;fill-opacity:1;fill-rule:nonzero;stroke:none;stroke-width:0.14765806"
           id="path4536"
           inkscape:connector-curvature="0" />
        <path
           d="m 187.87281,288.65529 h -0.91252 v -13.91234 h 0.91252 v 13.91234"
           style="fill:#333333;fill-opacity:1;fill-rule:nonzero;stroke:none;stroke-width:0.14765806"
           id="path4538"
           inkscape:connector-curvature="0" />
        <path
           d="m 193.08662,288.65529 h -0.9081 v -13.91234 h 0.9081 v 13.91234"
           style="fill:#333333;fill-opacity:1;fill-rule:nonzero;stroke:none;stroke-width:0.14765806"
           id="path4540"
           inkscape:connector-curvature="0" />
        <path
           d="m 197.49864,288.65529 h -0.914 v -13.91234 h 0.914 v 13.91234"
           style="fill:#333333;fill-opacity:1;fill-rule:nonzero;stroke:none;stroke-width:0.14765806"
           id="path4542"
           inkscape:connector-curvature="0" />
        <path
           d="m 204.07976,288.65529 h -0.91105 v -13.91234 h 0.91105 v 13.91234"
           style="fill:#333333;fill-opacity:1;fill-rule:nonzero;stroke:none;stroke-width:0.14765806"
           id="path4544"
           inkscape:connector-curvature="0" />
        <path
           d="m 213.89164,288.65529 h -0.90957 v -13.91234 h 0.90957 v 13.91234"
           style="fill:#333333;fill-opacity:1;fill-rule:nonzero;stroke:none;stroke-width:0.14765806"
           id="path4546"
           inkscape:connector-curvature="0" />
        <path
           d="m 217.80162,288.65529 h -0.90809 v -13.91234 h 0.90809 v 13.91234"
           style="fill:#333333;fill-opacity:1;fill-rule:nonzero;stroke:none;stroke-width:0.14765806"
           id="path4548"
           inkscape:connector-curvature="0" />
        <path
           d="m 225.62603,288.65529 h -0.9081 v -13.91234 h 0.9081 v 13.91234"
           style="fill:#333333;fill-opacity:1;fill-rule:nonzero;stroke:none;stroke-width:0.14765806"
           id="path4550"
           inkscape:connector-curvature="0" />
        <path
           d="m 233.32639,288.65529 h -0.90809 v -13.91234 h 0.90809 v 13.91234"
           style="fill:#333333;fill-opacity:1;fill-rule:nonzero;stroke:none;stroke-width:0.14765806"
           id="path4552"
           inkscape:connector-curvature="0" />
        <path
           d="m 236.86723,288.65529 h -0.91104 v -13.91234 h 0.91104 v 13.91234"
           style="fill:#333333;fill-opacity:1;fill-rule:nonzero;stroke:none;stroke-width:0.14765806"
           id="path4554"
           inkscape:connector-curvature="0" />
        <path
           d="m 235.25333,288.65529 h -0.33223 v -13.91234 h 0.33223 v 13.91234"
           style="fill:#333333;fill-opacity:1;fill-rule:nonzero;stroke:none;stroke-width:0.14765806"
           id="path4556"
           inkscape:connector-curvature="0" />
        <path
           d="m 229.15062,288.65529 h -0.33813 v -13.91234 h 0.33813 v 13.91234"
           style="fill:#333333;fill-opacity:1;fill-rule:nonzero;stroke:none;stroke-width:0.14765806"
           id="path4558"
           inkscape:connector-curvature="0" />
        <path
           d="m 226.83092,288.65529 h -0.33667 v -13.91234 h 0.33667 v 13.91234"
           style="fill:#333333;fill-opacity:1;fill-rule:nonzero;stroke:none;stroke-width:0.14765806"
           id="path4560"
           inkscape:connector-curvature="0" />
        <path
           d="m 221.44731,288.65529 h -0.33371 v -13.91234 h 0.33371 v 13.91234"
           style="fill:#333333;fill-opacity:1;fill-rule:nonzero;stroke:none;stroke-width:0.14765806"
           id="path4562"
           inkscape:connector-curvature="0" />
        <path
           d="m 212.33828,288.65529 h -0.33371 v -13.91234 h 0.33371 v 13.91234"
           style="fill:#333333;fill-opacity:1;fill-rule:nonzero;stroke:none;stroke-width:0.14765806"
           id="path4564"
           inkscape:connector-curvature="0" />
        <path
           d="m 202.36102,288.65529 h -0.33518 v -13.91234 h 0.33518 v 13.91234"
           style="fill:#333333;fill-opacity:1;fill-rule:nonzero;stroke:none;stroke-width:0.14765806"
           id="path4566"
           inkscape:connector-curvature="0" />
        <path
           d="m 205.37915,288.65529 h -0.33075 v -13.91234 h 0.33075 v 13.91234"
           style="fill:#333333;fill-opacity:1;fill-rule:nonzero;stroke:none;stroke-width:0.14765806"
           id="path4568"
           inkscape:connector-curvature="0" />
        <path
           d="m 206.91332,288.65529 h -0.33223 v -13.91234 h 0.33223 v 13.91234"
           style="fill:#333333;fill-opacity:1;fill-rule:nonzero;stroke:none;stroke-width:0.14765806"
           id="path4570"
           inkscape:connector-curvature="0" />
        <path
           d="m 195.90098,288.65529 h -0.33075 v -13.91234 h 0.33075 v 13.91234"
           style="fill:#333333;fill-opacity:1;fill-rule:nonzero;stroke:none;stroke-width:0.14765806"
           id="path4572"
           inkscape:connector-curvature="0" />
        <path
           d="m 194.53367,288.65529 h -0.33076 v -13.91234 h 0.33076 v 13.91234"
           style="fill:#333333;fill-opacity:1;fill-rule:nonzero;stroke:none;stroke-width:0.14765806"
           id="path4574"
           inkscape:connector-curvature="0" />
        <path
           d="m 189.15744,288.65529 h -0.33666 v -13.91234 h 0.33666 v 13.91234"
           style="fill:#333333;fill-opacity:1;fill-rule:nonzero;stroke:none;stroke-width:0.14765806"
           id="path4576"
           inkscape:connector-curvature="0" />
        <path
           d="m 182.52611,288.65529 h -0.33223 v -13.91234 h 0.33223 v 13.91234"
           style="fill:#333333;fill-opacity:1;fill-rule:nonzero;stroke:none;stroke-width:0.14765806"
           id="path4578"
           inkscape:connector-curvature="0" />
        <path
           d="m 179.29388,288.65529 h -0.3278 v -13.91234 h 0.3278 v 13.91234"
           style="fill:#333333;fill-opacity:1;fill-rule:nonzero;stroke:none;stroke-width:0.14765806"
           id="path4580"
           inkscape:connector-curvature="0" />
        <path
           d="m 170.23063,288.65529 h -0.33076 v -13.91234 h 0.33076 v 13.91234"
           style="fill:#333333;fill-opacity:1;fill-rule:nonzero;stroke:none;stroke-width:0.14765806"
           id="path4582"
           inkscape:connector-curvature="0" />
        <path
           d="m 165.76102,288.65529 h -0.33519 v -13.91234 h 0.33519 v 13.91234"
           style="fill:#333333;fill-opacity:1;fill-rule:nonzero;stroke:none;stroke-width:0.14765806"
           id="path4584"
           inkscape:connector-curvature="0" />
        <path
           d="m 163.8577,288.65529 h -0.33666 v -13.91234 h 0.33666 v 13.91234"
           style="fill:#333333;fill-opacity:1;fill-rule:nonzero;stroke:none;stroke-width:0.14765806"
           id="path4586"
           inkscape:connector-curvature="0" />
        <path
           d="m 154.70143,288.65529 h -0.33223 v -13.91234 h 0.33223 v 13.91234"
           style="fill:#333333;fill-opacity:1;fill-rule:nonzero;stroke:none;stroke-width:0.14765806"
           id="path4588"
           inkscape:connector-curvature="0" />
        <path
           d="m 153.04913,288.65529 h -0.33518 v -13.91234 h 0.33518 v 13.91234"
           style="fill:#333333;fill-opacity:1;fill-rule:nonzero;stroke:none;stroke-width:0.14765806"
           id="path4590"
           inkscape:connector-curvature="0" />
        <path
           d="m 151.35254,288.65529 h -0.33518 v -13.91234 h 0.33518 v 13.91234"
           style="fill:#333333;fill-opacity:1;fill-rule:nonzero;stroke:none;stroke-width:0.14765806"
           id="path4592"
           inkscape:connector-curvature="0" />
        <path
           d="m 140.95889,288.65529 h -0.33371 v -13.91234 h 0.33371 v 13.91234"
           style="fill:#333333;fill-opacity:1;fill-rule:nonzero;stroke:none;stroke-width:0.14765806"
           id="path4594"
           inkscape:connector-curvature="0" />
        <path
           d="m 142.15788,288.65529 h -0.33371 v -13.91234 h 0.33371 v 13.91234"
           style="fill:#333333;fill-opacity:1;fill-rule:nonzero;stroke:none;stroke-width:0.14765806"
           id="path4596"
           inkscape:connector-curvature="0" />
        <path
           d="m 139.75843,288.65529 h -0.33223 v -13.91234 h 0.33223 v 13.91234"
           style="fill:#333333;fill-opacity:1;fill-rule:nonzero;stroke:none;stroke-width:0.14765806"
           id="path4598"
           inkscape:connector-curvature="0" />
        <path
           d="m 136.24122,288.65529 h -0.33519 v -13.91234 h 0.33519 v 13.91234"
           style="fill:#333333;fill-opacity:1;fill-rule:nonzero;stroke:none;stroke-width:0.14765806"
           id="path4600"
           inkscape:connector-curvature="0" />
        <path
           d="m 122.11772,288.65529 h -0.32927 v -13.91234 h 0.32927 v 13.91234"
           style="fill:#333333;fill-opacity:1;fill-rule:nonzero;stroke:none;stroke-width:0.14765806"
           id="path4602"
           inkscape:connector-curvature="0" />
        <path
           d="m 125.51238,288.65529 h -0.33075 v -13.91234 h 0.33075 v 13.91234"
           style="fill:#333333;fill-opacity:1;fill-rule:nonzero;stroke:none;stroke-width:0.14765806"
           id="path4604"
           inkscape:connector-curvature="0" />
        <path
           d="m 120.62933,288.65529 h -0.33075 v -13.91234 h 0.33075 v 13.91234"
           style="fill:#333333;fill-opacity:1;fill-rule:nonzero;stroke:none;stroke-width:0.14765806"
           id="path4606"
           inkscape:connector-curvature="0" />
        <path
           d="m 119.22362,288.65529 h -0.33223 v -13.91234 h 0.33223 v 13.91234"
           style="fill:#333333;fill-opacity:1;fill-rule:nonzero;stroke:none;stroke-width:0.14765806"
           id="path4608"
           inkscape:connector-curvature="0" />
        <path
           d="m 107.63099,288.65529 h -0.33371 v -13.91234 h 0.33371 v 13.91234"
           style="fill:#333333;fill-opacity:1;fill-rule:nonzero;stroke:none;stroke-width:0.14765806"
           id="path4610"
           inkscape:connector-curvature="0" />
        <path
           d="m 105.47518,288.65529 h -0.33223 v -13.91234 h 0.33223 v 13.91234"
           style="fill:#333333;fill-opacity:1;fill-rule:nonzero;stroke:none;stroke-width:0.14765806"
           id="path4612"
           inkscape:connector-curvature="0" />
        <path
           d="m 103.89967,288.65529 h -0.3278 v -13.91234 h 0.3278 v 13.91234"
           style="fill:#333333;fill-opacity:1;fill-rule:nonzero;stroke:none;stroke-width:0.14765806"
           id="path4614"
           inkscape:connector-curvature="0" />
        <path
           d="m 93.556223,288.65529 h -0.335184 v -13.91234 h 0.335184 v 13.91234"
           style="fill:#333333;fill-opacity:1;fill-rule:nonzero;stroke:none;stroke-width:0.14765806"
           id="path4616"
           inkscape:connector-curvature="0" />
        <path
           d="m 92.166761,288.65529 h -0.335186 v -13.91234 h 0.335186 v 13.91234"
           style="fill:#333333;fill-opacity:1;fill-rule:nonzero;stroke:none;stroke-width:0.14765806"
           id="path4618"
           inkscape:connector-curvature="0" />
        <path
           d="m 90.201433,288.65529 h -0.332231 v -13.91234 h 0.332231 v 13.91234"
           style="fill:#333333;fill-opacity:1;fill-rule:nonzero;stroke:none;stroke-width:0.14765806"
           id="path4620"
           inkscape:connector-curvature="0" />
        <path
           d="m 78.152533,288.65529 h -0.333707 v -13.91234 h 0.333707 v 13.91234"
           style="fill:#333333;fill-opacity:1;fill-rule:nonzero;stroke:none;stroke-width:0.14765806"
           id="path4622"
           inkscape:connector-curvature="0" />
        <path
           d="m 72.87228,288.65529 h -0.330754 v -13.91234 h 0.330754 v 13.91234"
           style="fill:#333333;fill-opacity:1;fill-rule:nonzero;stroke:none;stroke-width:0.14765806"
           id="path4624"
           inkscape:connector-curvature="0" />
        <path
           d="M 70.7401,288.65529 H 70.406393 V 274.74295 H 70.7401 v 13.91234"
           style="fill:#333333;fill-opacity:1;fill-rule:nonzero;stroke:none;stroke-width:0.14765806"
           id="path4626"
           inkscape:connector-curvature="0" />
        <path
           d="m 68.463211,288.65529 h -0.330754 v -13.91234 h 0.330754 v 13.91234"
           style="fill:#333333;fill-opacity:1;fill-rule:nonzero;stroke:none;stroke-width:0.14765806"
           id="path4628"
           inkscape:connector-curvature="0" />
        <path
           d="m 66.785815,288.65529 h -0.330754 v -13.91234 h 0.330754 v 13.91234"
           style="fill:#333333;fill-opacity:1;fill-rule:nonzero;stroke:none;stroke-width:0.14765806"
           id="path4630"
           inkscape:connector-curvature="0" />
        <path
           d="m 63.49452,288.65529 h -0.330754 v -13.91234 h 0.330754 v 13.91234"
           style="fill:#333333;fill-opacity:1;fill-rule:nonzero;stroke:none;stroke-width:0.14765806"
           id="path4632"
           inkscape:connector-curvature="0" />
        <path
           d="m 54.343853,288.65529 h -0.332825 v -13.91234 h 0.332825 v 13.91234"
           style="fill:#333333;fill-opacity:1;fill-rule:nonzero;stroke:none;stroke-width:0.14765806"
           id="path4634"
           inkscape:connector-curvature="0" />
        <path
           d="m 51.943228,288.65529 h -0.331642 v -13.91234 h 0.331642 v 13.91234"
           style="fill:#333333;fill-opacity:1;fill-rule:nonzero;stroke:none;stroke-width:0.14765806"
           id="path4636"
           inkscape:connector-curvature="0" />
        <path
           d="m 49.832158,288.65529 h -0.331637 v -13.91234 h 0.331637 v 13.91234"
           style="fill:#333333;fill-opacity:1;fill-rule:nonzero;stroke:none;stroke-width:0.14765806"
           id="path4638"
           inkscape:connector-curvature="0" />
        <path
           d="m 40.330657,288.65529 h -0.332819 v -13.91234 h 0.332819 v 13.91234"
           style="fill:#333333;fill-opacity:1;fill-rule:nonzero;stroke:none;stroke-width:0.14765806"
           id="path4640"
           inkscape:connector-curvature="0" />
        <path
           d="m 38.506933,288.65529 h -0.332819 v -13.91234 h 0.332819 v 13.91234"
           style="fill:#333333;fill-opacity:1;fill-rule:nonzero;stroke:none;stroke-width:0.14765806"
           id="path4642"
           inkscape:connector-curvature="0" />
        <path
           d="m 26.6683,288.65529 h -0.33459 v -13.91234 h 0.33459 v 13.91234"
           style="fill:#333333;fill-opacity:1;fill-rule:nonzero;stroke:none;stroke-width:0.14765806"
           id="path4644"
           inkscape:connector-curvature="0" />
        <path
           d="m 30.95378,288.65529 h -0.334443 v -13.91234 h 0.334443 v 13.91234"
           style="fill:#333333;fill-opacity:1;fill-rule:nonzero;stroke:none;stroke-width:0.14765806"
           id="path4646"
           inkscape:connector-curvature="0" />
        <path
           d="m 113.60228,288.65529 h -0.91105 v -13.91234 h 0.91105 v 13.91234"
           style="fill:#333333;fill-opacity:1;fill-rule:nonzero;stroke:none;stroke-width:0.14765806"
           id="path4648"
           inkscape:connector-curvature="0" />
        <path
           d="M 30.013643,288.65529 H 28.19095 v -13.91234 h 1.822693 v 13.91234"
           style="fill:#333333;fill-opacity:1;fill-rule:nonzero;stroke:none;stroke-width:0.14765806"
           id="path4650"
           inkscape:connector-curvature="0" />
        <path
           d="m 43.573968,288.65529 h -1.822693 v -13.91234 h 1.822693 v 13.91234"
           style="fill:#333333;fill-opacity:1;fill-rule:nonzero;stroke:none;stroke-width:0.14765806"
           id="path4652"
           inkscape:connector-curvature="0" />
        <path
           d="m 46.368544,288.65529 h -1.822688 v -13.91234 h 1.822688 v 13.91234"
           style="fill:#333333;fill-opacity:1;fill-rule:nonzero;stroke:none;stroke-width:0.14765806"
           id="path4654"
           inkscape:connector-curvature="0" />
        <path
           d="m 57.359325,288.65529 h -1.822099 v -13.91234 h 1.822099 v 13.91234"
           style="fill:#333333;fill-opacity:1;fill-rule:nonzero;stroke:none;stroke-width:0.14765806"
           id="path4656"
           inkscape:connector-curvature="0" />
        <path
           d="m 61.812694,288.65529 h -1.823576 v -13.91234 h 1.823576 v 13.91234"
           style="fill:#333333;fill-opacity:1;fill-rule:nonzero;stroke:none;stroke-width:0.14765806"
           id="path4658"
           inkscape:connector-curvature="0" />
        <path
           d="M 80.582986,288.65529 H 78.76384 v -13.91234 h 1.819146 v 13.91234"
           style="fill:#333333;fill-opacity:1;fill-rule:nonzero;stroke:none;stroke-width:0.14765806"
           id="path4660"
           inkscape:connector-curvature="0" />
        <path
           d="m 77.253297,288.65529 h -1.822099 v -13.91234 h 1.822099 v 13.91234"
           style="fill:#333333;fill-opacity:1;fill-rule:nonzero;stroke:none;stroke-width:0.14765806"
           id="path4662"
           inkscape:connector-curvature="0" />
        <path
           d="m 84.972858,288.65529 h -1.8221 v -13.91234 h 1.8221 v 13.91234"
           style="fill:#333333;fill-opacity:1;fill-rule:nonzero;stroke:none;stroke-width:0.14765806"
           id="path4664"
           inkscape:connector-curvature="0" />
        <path
           d="m 98.037645,288.65529 h -1.823576 v -13.91234 h 1.823576 v 13.91234"
           style="fill:#333333;fill-opacity:1;fill-rule:nonzero;stroke:none;stroke-width:0.14765806"
           id="path4666"
           inkscape:connector-curvature="0" />
        <path
           d="m 100.41642,288.65529 h -1.822103 v -13.91234 h 1.822103 v 13.91234"
           style="fill:#333333;fill-opacity:1;fill-rule:nonzero;stroke:none;stroke-width:0.14765806"
           id="path4668"
           inkscape:connector-curvature="0" />
        <path
           d="m 112.15376,288.65529 h -1.82506 v -13.91234 h 1.82506 v 13.91234"
           style="fill:#333333;fill-opacity:1;fill-rule:nonzero;stroke:none;stroke-width:0.14765806"
           id="path4670"
           inkscape:connector-curvature="0" />
        <path
           d="m 115.85702,288.65529 h -1.82062 v -13.91234 h 1.82062 v 13.91234"
           style="fill:#333333;fill-opacity:1;fill-rule:nonzero;stroke:none;stroke-width:0.14765806"
           id="path4672"
           inkscape:connector-curvature="0" />
        <path
           d="m 128.34151,288.65529 h -1.8221 v -13.91234 h 1.8221 v 13.91234"
           style="fill:#333333;fill-opacity:1;fill-rule:nonzero;stroke:none;stroke-width:0.14765806"
           id="path4674"
           inkscape:connector-curvature="0" />
        <path
           d="m 131.30058,288.65529 h -1.82063 v -13.91234 h 1.82063 v 13.91234"
           style="fill:#333333;fill-opacity:1;fill-rule:nonzero;stroke:none;stroke-width:0.14765806"
           id="path4676"
           inkscape:connector-curvature="0" />
        <path
           d="m 147.83976,288.65529 h -1.81915 v -13.91234 h 1.81915 v 13.91234"
           style="fill:#333333;fill-opacity:1;fill-rule:nonzero;stroke:none;stroke-width:0.14765806"
           id="path4678"
           inkscape:connector-curvature="0" />
        <path
           d="m 145.25279,288.65529 h -1.8221 v -13.91234 h 1.8221 v 13.91234"
           style="fill:#333333;fill-opacity:1;fill-rule:nonzero;stroke:none;stroke-width:0.14765806"
           id="path4680"
           inkscape:connector-curvature="0" />
        <path
           d="m 158.77088,288.65529 h -1.8221 v -13.91234 h 1.8221 v 13.91234"
           style="fill:#333333;fill-opacity:1;fill-rule:nonzero;stroke:none;stroke-width:0.14765806"
           id="path4682"
           inkscape:connector-curvature="0" />
        <path
           d="m 162.18622,288.65529 h -1.82063 v -13.91234 h 1.82063 v 13.91234"
           style="fill:#333333;fill-opacity:1;fill-rule:nonzero;stroke:none;stroke-width:0.14765806"
           id="path4684"
           inkscape:connector-curvature="0" />
        <path
           d="m 174.73272,288.65529 h -1.82358 v -13.91234 h 1.82358 v 13.91234"
           style="fill:#333333;fill-opacity:1;fill-rule:nonzero;stroke:none;stroke-width:0.14765806"
           id="path4686"
           inkscape:connector-curvature="0" />
        <path
           d="m 177.63125,288.65529 h -1.81915 v -13.91234 h 1.81915 v 13.91234"
           style="fill:#333333;fill-opacity:1;fill-rule:nonzero;stroke:none;stroke-width:0.14765806"
           id="path4688"
           inkscape:connector-curvature="0" />
        <path
           d="m 185.35229,288.65529 h -1.82358 v -13.91234 h 1.82358 v 13.91234"
           style="fill:#333333;fill-opacity:1;fill-rule:nonzero;stroke:none;stroke-width:0.14765806"
           id="path4690"
           inkscape:connector-curvature="0" />
        <path
           d="m 191.62333,288.65529 h -1.81767 v -13.91234 h 1.81767 v 13.91234"
           style="fill:#333333;fill-opacity:1;fill-rule:nonzero;stroke:none;stroke-width:0.14765806"
           id="path4692"
           inkscape:connector-curvature="0" />
        <path
           d="m 200.79289,288.65529 h -1.82357 v -13.91234 h 1.82357 v 13.91234"
           style="fill:#333333;fill-opacity:1;fill-rule:nonzero;stroke:none;stroke-width:0.14765806"
           id="path4694"
           inkscape:connector-curvature="0" />
        <path
           d="m 220.28819,288.65529 h -1.82358 v -13.91234 h 1.82358 v 13.91234"
           style="fill:#333333;fill-opacity:1;fill-rule:nonzero;stroke:none;stroke-width:0.14765806"
           id="path4696"
           inkscape:connector-curvature="0" />
        <path
           d="m 216.23793,288.65529 h -1.8221 v -13.91234 h 1.8221 v 13.91234"
           style="fill:#333333;fill-opacity:1;fill-rule:nonzero;stroke:none;stroke-width:0.14765806"
           id="path4698"
           inkscape:connector-curvature="0" />
        <path
           d="m 211.05365,288.65529 h -3.39023 v -13.91234 h 3.39023 v 13.91234"
           style="fill:#333333;fill-opacity:1;fill-rule:nonzero;stroke:none;stroke-width:0.14765806"
           id="path4700"
           inkscape:connector-curvature="0" />
        <path
           d="m 223.95602,288.65529 h -1.82211 v -13.91234 h 1.82211 v 13.91234"
           style="fill:#333333;fill-opacity:1;fill-rule:nonzero;stroke:none;stroke-width:0.14765806"
           id="path4702"
           inkscape:connector-curvature="0" />
        <path
           d="m 231.68296,288.65529 h -1.82653 v -13.91234 h 1.82653 v 13.91234"
           style="fill:#333333;fill-opacity:1;fill-rule:nonzero;stroke:none;stroke-width:0.14765806"
           id="path4704"
           inkscape:connector-curvature="0" />
        <path
           d="m 239.39957,288.65529 h -1.82062 v -13.91234 h 1.82062 v 13.91234"
           style="fill:#333333;fill-opacity:1;fill-rule:nonzero;stroke:none;stroke-width:0.14765806"
           id="path4706"
           inkscape:connector-curvature="0" />
      </g>
      <path
         inkscape:connector-curvature="0"
         id="path5425"
         d="M 99.02976,214.4122 H 228.29762"
         style="fill:none;stroke:#000000;stroke-width:0.96499997;stroke-linecap:butt;stroke-linejoin:miter;stroke-miterlimit:4;stroke-dasharray:none;stroke-opacity:1" />
    </g>
  </g>
</svg>
