<?xml version="1.0" encoding="UTF-8" standalone="no"?>
<!-- Created with Inkscape (http://www.inkscape.org/) -->

<svg
   xmlns:dc="http://purl.org/dc/elements/1.1/"
   xmlns:cc="http://creativecommons.org/ns#"
   xmlns:rdf="http://www.w3.org/1999/02/22-rdf-syntax-ns#"
   xmlns:svg="http://www.w3.org/2000/svg"
   xmlns="http://www.w3.org/2000/svg"
   xmlns:sodipodi="http://sodipodi.sourceforge.net/DTD/sodipodi-0.dtd"
   xmlns:inkscape="http://www.inkscape.org/namespaces/inkscape"
   width="24"
   height="24"
   viewBox="0 0 6.3499998 6.3500001"
   version="1.1"
   id="svg8"
   inkscape:version="0.92.3 (2405546, 2018-03-11)"
   sodipodi:docname="isee_card_card.svg">
  <defs
     id="defs2">















	
	
	
	
	
	
	
	
	
	
	
	
	
	

	
	
	
	
</defs>
  <sodipodi:namedview
     id="base"
     pagecolor="#ffffff"
     bordercolor="#666666"
     borderopacity="1.0"
     inkscape:pageopacity="0.0"
     inkscape:pageshadow="2"
     inkscape:zoom="20.690692"
     inkscape:cx="-0.57281896"
     inkscape:cy="15.468057"
     inkscape:document-units="px"
     inkscape:current-layer="layer1"
     showgrid="false"
     units="px"
     inkscape:showpageshadow="false"
     inkscape:window-width="2532"
     inkscape:window-height="1055"
     inkscape:window-x="28"
     inkscape:window-y="0"
     inkscape:window-maximized="1" />
  <metadata
     id="metadata5">
    <rdf:RDF>
      <cc:Work
         rdf:about="">
        <dc:format>image/svg+xml</dc:format>
        <dc:type
           rdf:resource="http://purl.org/dc/dcmitype/StillImage" />
        <dc:title></dc:title>
      </cc:Work>
    </rdf:RDF>
  </metadata>
  <g
     inkscape:label="Livello 1"
     inkscape:groupmode="layer"
     id="layer1"
     transform="translate(0,-290.64998)">
    <path
       inkscape:connector-curvature="0"
       style="fill:#f9f9f9;fill-opacity:1;stroke-width:0.0190623"
       d="M 5.7899193,290.92751 H 0.52171805 c -0.16851073,0 -0.3049968,0.13649 -0.3049968,0.305 v 5.18494 c 0,0.16852 0.13648607,0.305 0.3049968,0.305 H 5.7899193 c 0.1685107,0 0.3049968,-0.13648 0.3049968,-0.305 v -5.18494 c 0,-0.16851 -0.1364861,-0.305 -0.3049968,-0.305 z m -2.2182332,0.91499 c -2.3490719,3.43165 -1.174536,1.71582 0,0 z m 1.9824792,1.52499 c -3.6707247,2.41499 -1.8353624,1.20749 0,0 z M 5.2491684,292.3 H 3.5716861 Z m 0,1.06749 H 3.5716861 Z m -4.42245355,2.74497 v -0.91499 z m 0.45749515,0 v -0.91499 z m 0.3049968,0 v -0.91499 z m 0.4574952,0 v -0.91499 z m 0.4574953,0 v -0.91499 z m 0.3049968,0 v -0.91499 z m 0.1524984,-1.98248 H 2.6566957 1.1317116 0.82671485 v -2.59247 H 2.9616925 Z m 0.3049968,1.98248 v -0.91499 z m 2.8974696,-2.28748 H 3.5716861 Z m -0.6792364,2.28748 H 4.4866764 v -0.91499 h 0.9982461 z"
       id="path1121"
       sodipodi:nodetypes="ssssssssscccccccccccccccccccccccccccccccccccccccccccccc" />
    <path
       id="path1135"
       d="M 0.52171805,296.87495 H 5.8282819 c 0.2522323,0 0.4574952,-0.20526 0.4574952,-0.4575 v -5.18494 c 0,-0.25223 -0.2052629,-0.4575 -0.4574952,-0.4575 H 0.52171805 c -0.25223235,0 -0.4574952,0.20527 -0.4574952,0.4575 v 5.18494 c 0,0.25224 0.20526285,0.4575 0.4574952,0.4575 z m -0.1524984,-5.64244 c 0,-0.0842 0.0683193,-0.1525 0.1524984,-0.1525 H 5.8282819 c 0.084179,0 0.1524983,0.0683 0.1524983,0.1525 v 5.18494 c 0,0.0842 -0.068319,0.1525 -0.1524983,0.1525 H 0.52171805 c -0.0841791,0 -0.1524984,-0.0683 -0.1524984,-0.1525 z"
       style="fill:#d43daa;fill-opacity:1;stroke-width:0.0190623"
       inkscape:connector-curvature="0"
       sodipodi:nodetypes="ssssssssssssssssss" />
    <path
       id="path1137"
       d="M 0.82671485,294.28248 H 1.1317116 2.6566957 2.9616925 c 0.084332,0 0.1524984,-0.0682 0.1524984,-0.1525 v -2.59247 c 0,-0.0843 -0.068167,-0.1525 -0.1524984,-0.1525 H 0.82671485 c -0.0843316,0 -0.1524984,0.0682 -0.1524984,0.1525 v 2.59247 c 0,0.0843 0.0681668,0.1525 0.1524984,0.1525 z m 0.45749515,-0.305 v -0.1525 c 0,-0.33641 0.2735822,-0.60999 0.6099936,-0.60999 0.3364115,0 0.6099937,0.27358 0.6099937,0.60999 v 0.1525 z m 0.3049968,-1.37249 c 0,-0.1682 0.1367911,-0.30499 0.3049968,-0.30499 0.1682058,0 0.3049969,0.13679 0.3049969,0.30499 0,0.16821 -0.1367911,0.305 -0.3049969,0.305 -0.1682057,0 -0.3049968,-0.13679 -0.3049968,-0.305 z M 0.97921325,291.69 H 2.8091941 v 2.13498 c 0,-0.34464 -0.191538,-0.64507 -0.4738126,-0.80107 0.1040039,-0.1095 0.1688158,-0.25635 0.1688158,-0.41892 0,-0.33641 -0.2735822,-0.60999 -0.6099937,-0.60999 -0.3364114,0 -0.6099936,0.27358 -0.6099936,0.60999 0,0.16257 0.064812,0.30942 0.1688158,0.41892 -0.2822746,0.156 -0.47381255,0.45643 -0.47381255,0.80107 z"
       style="fill:#d43daa;fill-opacity:1;stroke-width:0.0190623"
       inkscape:connector-curvature="0" />
    <path
       inkscape:connector-curvature="0"
       style="fill:#d43daa;fill-opacity:1;stroke-width:0.0190623"
       d="M 3.5716859,291.69 H 5.301679 v 0.30499 H 3.5716859 Z"
       id="rect1139"
       sodipodi:nodetypes="ccccc" />
    <path
       inkscape:connector-curvature="0"
       style="fill:#d43daa;fill-opacity:1;stroke-width:0.0190623"
       d="m 3.5716859,293.215 h 1.6774824 v 0.30499 H 3.5716859 Z"
       id="rect1141" />
    <path
       style="fill:#d43daa;fill-opacity:1;stroke-width:0.0190623"
       d="m 3.5716859,293.67249 h 2.0042453 v 0.30499 H 3.5716859 Z"
       id="rect1145"
       inkscape:connector-curvature="0"
       sodipodi:nodetypes="ccccc" />
    <path
       inkscape:connector-curvature="0"
       style="fill:#d43daa;fill-opacity:1;stroke-width:0.0190623"
       d="m 3.5716859,292.14749 h 0.8718663 v 0.30499 H 3.5716859 Z"
       id="rect1149" />
    <path
       inkscape:connector-curvature="0"
       style="fill:#d43daa;fill-opacity:1;stroke-width:0.0190623"
       d="m 0.67421647,295.19748 h 0.30499679 v 0.91499 H 0.67421647 Z"
       id="rect1153" />
    <path
       inkscape:connector-curvature="0"
       style="fill:#d43daa;fill-opacity:1;stroke-width:0.0190623"
       d="m 1.73305,296.11246 v -0.91499 H 1.4280531 1.1230563 v 0.91499 h 0.3049968 z"
       id="polygon1155" />
    <path
       inkscape:connector-curvature="0"
       style="fill:#d43daa;fill-opacity:1;stroke-width:0.0190623"
       d="m 1.8768931,295.19748 h 0.3049968 v 0.91499 H 1.8768931 Z"
       id="rect1157" />
    <path
       inkscape:connector-curvature="0"
       style="fill:#d43daa;fill-opacity:1;stroke-width:0.0190623"
       d="m 2.9357267,296.11246 v -0.91499 H 2.6307299 2.3257331 v 0.91499 h 0.3049968 z"
       id="polygon1159" />
    <path
       inkscape:connector-curvature="0"
       style="fill:#d43daa;fill-opacity:1;stroke-width:0.0190623"
       d="m 3.0795699,295.19748 h 0.3049967 v 0.91499 H 3.0795699 Z"
       id="rect1161" />
    <path
       id="path1356"
       d="m 3.5284097,295.19748 h 0.3049967 v 0.91499 H 3.5284097 Z"
       style="fill:#d43daa;fill-opacity:1;stroke-width:0.0190623"
       inkscape:connector-curvature="0" />
    <path
       inkscape:connector-curvature="0"
       style="fill:#d43daa;fill-opacity:1;stroke-width:0.0190623"
       d="m 3.9772496,295.19748 h 0.3049967 v 0.91499 H 3.9772496 Z"
       id="path1358" />
    <path
       id="path1360"
       d="m 4.4260894,295.19748 h 0.3049967 v 0.91499 H 4.4260894 Z"
       style="fill:#d43daa;fill-opacity:1;stroke-width:0.0190623"
       inkscape:connector-curvature="0" />
    <path
       id="path1362"
       d="m 5.4849231,296.11246 v -0.91499 H 5.1799263 4.8749295 v 0.91499 h 0.3049968 z"
       style="fill:#d43daa;fill-opacity:1;stroke-width:0.0190623"
       inkscape:connector-curvature="0" />
    <path
       id="path1364"
       d="m 3.5716859,292.68583 h 2.0099588 v 0.30499 H 3.5716859 Z"
       style="fill:#d43daa;fill-opacity:1;stroke-width:0.0190623"
       inkscape:connector-curvature="0"
       sodipodi:nodetypes="ccccc" />
  </g>
</svg>
