<?xml version="1.0" encoding="UTF-8" standalone="no"?>
<!-- Created with Inkscape (http://www.inkscape.org/) -->

<svg
   xmlns:dc="http://purl.org/dc/elements/1.1/"
   xmlns:cc="http://creativecommons.org/ns#"
   xmlns:rdf="http://www.w3.org/1999/02/22-rdf-syntax-ns#"
   xmlns:svg="http://www.w3.org/2000/svg"
   xmlns="http://www.w3.org/2000/svg"
   xmlns:sodipodi="http://sodipodi.sourceforge.net/DTD/sodipodi-0.dtd"
   xmlns:inkscape="http://www.inkscape.org/namespaces/inkscape"
   width="24"
   height="24"
   viewBox="0 0 6.3499998 6.3500001"
   version="1.1"
   id="svg8"
   inkscape:version="0.92.3 (2405546, 2018-03-11)"
   sodipodi:docname="location_card.svg">
  <defs
     id="defs2" />
  <sodipodi:namedview
     id="base"
     pagecolor="#ffffff"
     bordercolor="#666666"
     borderopacity="1.0"
     inkscape:pageopacity="0.0"
     inkscape:pageshadow="2"
     inkscape:zoom="14.630529"
     inkscape:cx="37.319371"
     inkscape:cy="9.5014809"
     inkscape:document-units="px"
     inkscape:current-layer="layer1"
     showgrid="false"
     units="px"
     inkscape:showpageshadow="false"
     inkscape:window-width="2532"
     inkscape:window-height="1055"
     inkscape:window-x="28"
     inkscape:window-y="0"
     inkscape:window-maximized="1" />
  <metadata
     id="metadata5">
    <rdf:RDF>
      <cc:Work
         rdf:about="">
        <dc:format>image/svg+xml</dc:format>
        <dc:type
           rdf:resource="http://purl.org/dc/dcmitype/StillImage" />
        <dc:title />
      </cc:Work>
    </rdf:RDF>
  </metadata>
  <g
     inkscape:label="Livello 1"
     inkscape:groupmode="layer"
     id="layer1"
     transform="translate(0,-290.64998)">
    <g
       id="g1153"
       transform="matrix(0.01240236,0,0,0.01240236,-4e-6,290.64998)"
       style="fill:#d43daa;fill-opacity:1">
      <g
         id="g1087"
         style="fill:#d43daa;fill-opacity:1">
        <g
           id="g1085"
           style="fill:#d43daa;fill-opacity:1">
          <path
             id="path1083"
             d="M 256,0 C 153.755,0 70.573,83.182 70.573,185.426 c 0,126.888 165.939,313.167 173.004,321.035 6.636,7.391 18.222,7.378 24.846,0 7.065,-7.868 173.004,-194.147 173.004,-321.035 C 441.425,83.182 358.244,0 256,0 Z m 0,469.729 C 200.153,403.391 103.965,272.512 103.965,185.428 103.965,101.594 172.167,33.392 256,33.392 c 83.833,0 152.035,68.202 152.035,152.035 C 408.034,272.515 311.861,403.37 256,469.729 Z"
             inkscape:connector-curvature="0"
             style="fill:#d43daa;fill-opacity:1" />
        </g>
      </g>
      <g
         id="g1093"
         style="fill:#d43daa;fill-opacity:1">
        <g
           id="g1091"
           style="fill:#d43daa;fill-opacity:1">
          <path
             id="path1089"
             d="m 256,92.134 c -51.442,0 -93.292,41.851 -93.292,93.293 0,51.442 41.851,93.293 93.292,93.293 51.441,0 93.291,-41.851 93.291,-93.293 0,-51.442 -41.85,-93.293 -93.291,-93.293 z m 0,153.194 c -33.03,0 -59.9,-26.871 -59.9,-59.901 0,-33.03 26.871,-59.901 59.9,-59.901 33.029,0 59.9,26.871 59.9,59.901 0,33.03 -26.871,59.901 -59.9,59.901 z"
             inkscape:connector-curvature="0"
             style="fill:#d43daa;fill-opacity:1" />
        </g>
      </g>
      <g
         id="g1095"
         style="fill:#d43daa;fill-opacity:1" />
      <g
         id="g1097"
         style="fill:#d43daa;fill-opacity:1" />
      <g
         id="g1099"
         style="fill:#d43daa;fill-opacity:1" />
      <g
         id="g1101"
         style="fill:#d43daa;fill-opacity:1" />
      <g
         id="g1103"
         style="fill:#d43daa;fill-opacity:1" />
      <g
         id="g1105"
         style="fill:#d43daa;fill-opacity:1" />
      <g
         id="g1107"
         style="fill:#d43daa;fill-opacity:1" />
      <g
         id="g1109"
         style="fill:#d43daa;fill-opacity:1" />
      <g
         id="g1111"
         style="fill:#d43daa;fill-opacity:1" />
      <g
         id="g1113"
         style="fill:#d43daa;fill-opacity:1" />
      <g
         id="g1115"
         style="fill:#d43daa;fill-opacity:1" />
      <g
         id="g1117"
         style="fill:#d43daa;fill-opacity:1" />
      <g
         id="g1119"
         style="fill:#d43daa;fill-opacity:1" />
      <g
         id="g1121"
         style="fill:#d43daa;fill-opacity:1" />
      <g
         id="g1123"
         style="fill:#d43daa;fill-opacity:1" />
    </g>
  </g>
</svg>
