<?xml version="1.0" encoding="UTF-8" standalone="no"?>
<svg
   xmlns:dc="http://purl.org/dc/elements/1.1/"
   xmlns:cc="http://creativecommons.org/ns#"
   xmlns:rdf="http://www.w3.org/1999/02/22-rdf-syntax-ns#"
   xmlns:svg="http://www.w3.org/2000/svg"
   xmlns="http://www.w3.org/2000/svg"
   xmlns:xlink="http://www.w3.org/1999/xlink"
   xmlns:sodipodi="http://sodipodi.sourceforge.net/DTD/sodipodi-0.dtd"
   xmlns:inkscape="http://www.inkscape.org/namespaces/inkscape"
   sodipodi:docname="navbar_logo.svg"
   inkscape:version="1.0 (4035a4f, 2020-05-01)"
   id="svg8"
   version="1.1"
   viewBox="0 0 36.512498 8.4666665"
   height="32"
   width="138">
  <defs
     id="defs2">
    <linearGradient
       inkscape:collect="always"
       id="linearGradient932">
      <stop
         style="stop-color:#d40000;stop-opacity:1"
         offset="0"
         id="stop928" />
      <stop
         style="stop-color:#ffd5d5;stop-opacity:1"
         offset="1"
         id="stop930" />
    </linearGradient>
    <linearGradient
       inkscape:collect="always"
       xlink:href="#linearGradient932"
       id="linearGradient934"
       x1="-8.9459114"
       y1="278.96362"
       x2="131.25795"
       y2="278.96362"
       gradientUnits="userSpaceOnUse" />
    <filter
       inkscape:collect="always"
       style="color-interpolation-filters:sRGB"
       id="filter1016"
       x="-0.016189407"
       width="1.0323788"
       y="-0.081265856"
       height="1.1625317">
      <feGaussianBlur
         inkscape:collect="always"
         stdDeviation="0.95530689"
         id="feGaussianBlur1018" />
    </filter>
  </defs>
  <sodipodi:namedview
     inkscape:window-maximized="0"
     inkscape:window-y="23"
     inkscape:window-x="0"
     inkscape:window-height="1035"
     inkscape:window-width="1920"
     showgrid="false"
     inkscape:document-rotation="0"
     inkscape:current-layer="g900"
     inkscape:document-units="px"
     inkscape:cy="24.482424"
     inkscape:cx="81.071816"
     inkscape:zoom="6.1452631"
     inkscape:pageshadow="2"
     inkscape:pageopacity="0.0"
     borderopacity="1.0"
     bordercolor="#666666"
     pagecolor="#ffffff"
     id="base"
     inkscape:showpageshadow="false"
     units="px" />
  <metadata
     id="metadata5">
    <rdf:RDF>
      <cc:Work
         rdf:about="">
        <dc:format>image/svg+xml</dc:format>
        <dc:type
           rdf:resource="http://purl.org/dc/dcmitype/StillImage" />
        <dc:title />
      </cc:Work>
    </rdf:RDF>
  </metadata>
  <g
     id="layer1"
     inkscape:groupmode="layer"
     inkscape:label="Livello 1"
     transform="translate(0,-290.12083)">
    <g
       id="g1731"
       transform="matrix(0.46334899,0,0,0.46334899,69.829131,181.8785)"
       style="fill:#808080">
      <g
         id="g900"
         transform="matrix(0.38036296,0,0,0.38036296,-134.56411,133.07985)"
         style="fill:#808080">
        <path
           id="text822-2"
           style="font-style:normal;font-variant:normal;font-weight:normal;font-stretch:normal;font-size:30.00019999999999953px;line-height:1.25;font-family:'Futura Hv BT';-inkscape-font-specification:'Futura Hv BT';letter-spacing:0px;word-spacing:0px;fill:url(#linearGradient934);fill-opacity:1;stroke:none;stroke-width:1.41065"
           d="m 14.586361,264.29702 c -3.240882,0 -6.042492,0.81407 -8.4101119,2.43372 v -1.77248 H -9.659007 v 4.45876 H 0.36516747 v 4.82841 H -7.4801376 v 4.7182 h 7.84530507 c 0.26723039,2.41157 0,10.40613 0,12.88494 H 6.1762491 v -1.75641 c 2.3594112,1.60879 5.1610479,2.41765 8.4101119,2.41765 3.534393,0 6.435551,-1.17623 8.706292,-3.51971 l 103.341297,0.0597 c 0.19539,0.009 0.39705,0.0161 0.60612,0.0161 0.92,0 1.70084,-0.10683 2.34418,-0.31914 0.64335,-0.2123 1.17248,-0.54104 1.58422,-0.98496 0.28952,-0.29593 0.49256,-0.64624 0.60843,-1.05156 0.12228,-0.40531 0.18368,-1.10591 0.18368,-2.1031 v -9.31242 h -2.58755 v 1.56355 c -0.36029,-0.61761 -0.80962,-1.08529 -1.35003,-1.40054 -0.53398,-0.32166 -1.1461,-0.48215 -1.83448,-0.48215 -1.33816,0 -2.3863,0.44384 -3.14546,1.33166 -0.75915,0.88783 -1.1388,2.11754 -1.1388,3.68732 0,1.54404 0.39018,2.77146 1.16864,3.68502 0.77846,0.90712 1.81606,1.3615 3.11562,1.3615 0.7077,0 1.31979,-0.14168 1.83448,-0.42475 0.5211,-0.28306 0.96495,-0.71866 1.33166,-1.30411 v 1.35233 c 0,0.90068 -0.16828,1.54488 -0.50281,1.9309 -0.32812,0.38602 -0.86548,0.57858 -1.61178,0.57858 -0.0442,0 -0.0861,0.009 -0.12856,0.0207 l -102.505567,0.19516 c 1.571799,-2.28372 2.36025,-5.08808 2.36025,-8.417 0,-0.37961 -0.0061,-0.66124 -0.01837,-0.84492 0,-0.18369 -0.01221,-0.3551 -0.03674,-0.51429 l -12.251252,3.61843 v 1.12043 h 6.465432 v 0.29388 c 0,1.43269 -0.587755,2.59596 -1.7633,3.48987 -1.175548,0.88166 -2.706154,1.32247 -4.591926,1.32247 -11.4631074,-0.6953 -10.9270244,-18.07032 0.110207,-18.20239 1.39596,0 2.626568,0.26939 3.691908,0.80818 1.065336,0.52654 2.081661,1.38982 3.049039,2.58984 l 3.875585,-2.86536 c -1.432694,-1.82454 -3.061267,-3.19598 -4.885809,-4.11436 -1.824546,-0.9184 -3.832704,-1.37758 -6.024607,-1.37758 z m 27.730641,5.50572 c -0.437481,0 -0.812076,0.15772 -1.127319,0.47297 -0.315241,0.31523 -0.472967,0.69213 -0.472967,1.12961 0,0.43104 0.157726,0.80794 0.472967,1.12961 0.315243,0.32168 0.689838,0.48216 1.127319,0.48216 0.443913,0 0.823555,-0.15773 1.138797,-0.47297 0.321677,-0.31524 0.484448,-0.69488 0.484448,-1.1388 0,-0.44391 -0.162771,-0.8208 -0.484448,-1.12961 -0.315242,-0.31525 -0.694884,-0.47297 -1.138797,-0.47297 z m 34.462403,0 v 14.9582 h 2.741379 v -14.9582 z m 12.747186,0.512 c -2.180964,0 -3.98564,0.69784 -5.413881,2.09392 -1.428242,1.39607 -2.142133,3.16085 -2.142133,5.29678 0,2.15523 0.711141,3.9356 2.13295,5.33812 1.421807,1.39606 3.229233,2.09391 5.423064,2.09391 1.917188,0 3.481151,-0.65751 4.690651,-1.96993 1.209502,-1.31245 1.813811,-3.02633 1.813811,-5.14296 0,-0.19944 -0.0028,-0.34662 -0.0092,-0.44312 1e-6,-0.0965 -0.0055,-0.18728 -0.01836,-0.27092 h -6.43788 v 2.49112 h 3.398005 v 0.15383 c 0,0.75271 -0.309951,1.36253 -0.927569,1.83217 -0.617619,0.46322 -1.422295,0.69568 -2.413057,0.69568 -1.351039,0 -2.447324,-0.43833 -3.290115,-1.31329 -0.836358,-0.8814 -1.253595,-2.03636 -1.253595,-3.46461 0,-1.45397 0.417237,-2.61445 1.253595,-3.48297 0.836358,-0.86853 1.951441,-1.30181 3.347514,-1.30181 0.733422,0 1.38037,0.14168 1.940089,0.42475 0.559716,0.27664 1.094338,0.72873 1.602582,1.35921 l 2.036519,-1.50386 c -0.752722,-0.95859 -1.608295,-1.68028 -2.566887,-2.16279 -0.958594,-0.48252 -2.014532,-0.72323 -3.166132,-0.72323 z m -59.088902,0.31914 v 14.12706 h 3.021487 v -6.10956 h 5.296787 v -2.56689 h -5.296787 v -2.90439 h 5.296787 v -2.54622 z m 19.368743,4.30263 c -1.190202,0 -2.147558,0.28611 -2.874545,0.85869 -0.726989,0.57258 -1.090583,1.32361 -1.090583,2.25004 10e-7,0.62405 0.211369,1.14813 0.635982,1.57274 0.431045,0.42462 1.203627,0.8446 2.316626,1.26278 0.167272,0.0643 0.391939,0.14456 0.675014,0.24107 0.91356,0.30881 1.37069,0.6935 1.37069,1.15028 0,0.28952 -0.128381,0.51693 -0.385722,0.6842 -0.257342,0.16083 -0.612685,0.24108 -1.063031,0.24108 -0.45678,0 -0.839172,-0.10684 -1.147982,-0.31914 -0.308806,-0.2123 -0.498628,-0.50116 -0.569399,-0.86788 l -2.112286,1.09059 c 0.231608,0.63049 0.691488,1.13025 1.379874,1.49696 0.694821,0.36028 1.531594,0.53955 2.509488,0.53955 1.235236,0 2.216437,-0.27785 2.943424,-0.83114 0.726989,-0.55327 1.088286,-1.29926 1.088286,-2.23856 0,-0.70125 -0.216869,-1.27622 -0.654348,-1.72656 -0.43748,-0.45679 -1.175217,-0.85522 -2.211013,-1.1962 -0.0772,-0.0258 -0.189535,-0.0606 -0.337507,-0.10561 -1.248103,-0.40531 -1.87121,-0.84364 -1.87121,-1.31329 0,-0.27021 0.125631,-0.48938 0.376539,-0.65665 0.250907,-0.16727 0.57736,-0.25026 0.982672,-0.25026 0.40531,0 0.744607,0.0935 1.014816,0.28011 0.270207,0.18015 0.460028,0.44745 0.569398,0.80129 l 2.015855,-1.00563 c -0.283075,-0.62406 -0.737455,-1.10549 -1.361505,-1.44646 -0.617618,-0.34098 -1.350308,-0.512 -2.199533,-0.512 z m 10.200964,0.039 c -1.505444,0 -2.732406,0.47043 -3.678133,1.40972 -0.945728,0.93286 -1.41661,2.14148 -1.41661,3.62763 0,1.5183 0.468132,2.75351 1.407426,3.70568 0.939294,0.94572 2.155709,1.4189 3.648285,1.4189 0.488948,0 0.938282,-0.0559 1.350026,-0.1653 0.411746,-0.10295 0.804685,-0.26616 1.177829,-0.49134 l -0.01837,-2.86536 c -0.289508,0.34098 -0.607709,0.59224 -0.95512,0.75307 -0.340977,0.16085 -0.733916,0.24108 -1.177829,0.24108 -0.804189,0 -1.443344,-0.23522 -1.919424,-0.70486 -0.469648,-0.47609 -0.704862,-1.11249 -0.704862,-1.91024 0,-0.77846 0.230167,-1.40386 0.693381,-1.87351 0.463213,-0.47608 1.080819,-0.71404 1.852842,-0.71404 0.424612,0 0.8281,0.0802 1.207677,0.24107 0.379579,0.16085 0.713827,0.39056 1.003335,0.6865 l 0.01837,-2.75975 c -0.360277,-0.20588 -0.739919,-0.3581 -1.138798,-0.4546 -0.398877,-0.0965 -0.84821,-0.14465 -1.350025,-0.14465 z m 8.279241,0 c -1.344604,0 -2.395496,0.44659 -3.154652,1.34084 -0.752722,0.88783 -1.129614,2.13083 -1.129614,3.72635 0,1.53118 0.382392,2.76135 1.147982,3.69421 0.772021,0.93285 1.785318,1.40053 3.039854,1.40053 0.752722,0 1.389126,-0.13893 1.910241,-0.41557 0.527549,-0.28307 0.979179,-0.72415 1.352323,-1.32247 l -0.03903,1.36151 h 2.663317 v -9.46626 h -2.605922 v 1.56355 c -0.360277,-0.62405 -0.806861,-1.09448 -1.340842,-1.40972 -0.527549,-0.31524 -1.142404,-0.47297 -1.843659,-0.47297 z m 33.583043,0 c -1.34459,0 -2.395496,0.44659 -3.154644,1.34084 -0.752729,0.88783 -1.129615,2.13083 -1.129615,3.72635 0,1.53118 0.382388,2.76135 1.147977,3.69421 0.77202,0.93285 1.785332,1.40053 3.039862,1.40053 0.75271,0 1.38912,-0.13893 1.91024,-0.41557 0.52754,-0.28307 0.97918,-0.72415 1.35232,-1.32247 l -0.039,1.36151 h 2.66331 v -9.46626 h -2.60591 v 1.56355 c -0.36028,-0.62405 -0.80686,-1.09448 -1.34085,-1.40972 -0.52754,-0.31524 -1.14239,-0.47297 -1.84366,-0.47297 z m 14.57249,0 c -0.69482,0 -1.32848,0.14718 -1.90106,0.44312 -0.56615,0.28952 -1.09802,0.74389 -1.5934,1.36151 v -1.48549 h -2.69087 v 9.46626 h 2.75056 v -4.16947 -0.37654 c 0,-0.59189 0.0348,-1.03297 0.10556,-1.32247 0.0772,-0.28952 0.1978,-0.54628 0.36507,-0.77145 0.21231,-0.28951 0.47686,-0.51142 0.79211,-0.66583 0.32167,-0.16083 0.67197,-0.24107 1.05155,-0.24107 0.65621,0 1.12114,0.18707 1.39134,0.56021 0.27022,0.37314 0.40411,1.14068 0.40411,2.30515 v 4.68147 h 2.75055 v -5.52868 -0.30077 c 0,-0.70769 -0.0321,-1.22396 -0.0964,-1.55207 -0.0579,-0.33455 -0.15693,-0.63395 -0.29848,-0.89773 -0.2895,-0.50825 -0.68518,-0.88514 -1.18699,-1.12961 -0.49538,-0.25091 -1.11025,-0.37654 -1.84366,-0.37654 z m -75.484378,0.31914 v 9.46626 h 2.739083 v -9.46626 z m 28.235751,1.95846 c 0.726987,0 1.304247,0.2485 1.72886,0.74389 0.431046,0.49538 0.645165,1.16663 0.645165,2.01586 0,0.85565 -0.208619,1.52141 -0.626797,1.99748 -0.418179,0.47608 -1.006441,0.71405 -1.765596,0.71405 -0.746288,0 -1.331799,-0.23797 -1.756412,-0.71405 -0.418178,-0.47607 -0.626797,-1.14183 -0.626797,-1.99748 0,-0.85566 0.21137,-1.52692 0.635982,-2.01586 0.431045,-0.49539 1.019307,-0.74389 1.765595,-0.74389 z m 33.583057,0 c 0.72698,0 1.30424,0.2485 1.72885,0.74389 0.43105,0.49538 0.64517,1.16663 0.64517,2.01586 0,0.85565 -0.20862,1.52141 -0.62681,1.99748 -0.41817,0.47608 -1.00643,0.71405 -1.76559,0.71405 -0.74628,0 -1.33179,-0.23797 -1.75641,-0.71405 -0.41818,-0.47607 -0.62679,-1.14183 -0.62679,-1.99748 0,-0.85566 0.21136,-1.52692 0.63597,-2.01586 0.43105,-0.49539 1.01931,-0.74389 1.76561,-0.74389 z m 24.31884,0.0574 c 0.73341,0 1.31342,0.24072 1.73803,0.72323 0.42462,0.48252 0.63599,1.14275 0.63599,1.97912 0,0.84279 -0.21137,1.49799 -0.63599,1.96764 -0.41817,0.46965 -1.00369,0.70486 -1.75641,0.70486 -0.75272,0 -1.33822,-0.23521 -1.75641,-0.70486 -0.41817,-0.46965 -0.62679,-1.12485 -0.62679,-1.96764 0,-0.84279 0.21137,-1.50304 0.63597,-1.97912 0.42462,-0.48251 1.01288,-0.72323 1.76561,-0.72323 z" />
        <path
           id="path940"
           style="font-style:normal;font-variant:normal;font-weight:normal;font-stretch:normal;font-size:30.00019999999999953px;line-height:1.25;font-family:'Futura Hv BT';-inkscape-font-specification:'Futura Hv BT';letter-spacing:0px;word-spacing:0px;fill:#000000;fill-opacity:1;stroke:none;stroke-width:1.41065;filter:url(#filter1016)"
           d="m 15.787212,265.3479 c -3.240882,0 -6.0424921,0.81407 -8.4101122,2.43372 v -1.77248 H -8.4581563 v 4.45876 H 1.5660182 v 4.82841 h -7.8453051 v 4.7182 h 7.8453051 c 0.2672304,2.41157 0,10.40613 0,12.88494 h 5.8110816 v -1.75641 c 2.3594111,1.60879 5.1610482,2.41765 8.4101122,2.41765 3.534393,0 6.435551,-1.17623 8.706292,-3.51971 l 103.341256,0.0597 c 0.19539,0.009 0.39705,0.0161 0.60612,0.0161 0.92,0 1.70084,-0.10683 2.34418,-0.31914 0.64335,-0.2123 1.17248,-0.54104 1.58422,-0.98496 0.28952,-0.29593 0.49256,-0.64624 0.60843,-1.05156 0.12228,-0.40531 0.18368,-1.10591 0.18368,-2.1031 v -9.31242 h -2.58755 v 1.56355 c -0.36029,-0.61761 -0.80962,-1.08529 -1.35003,-1.40054 -0.53398,-0.32166 -1.1461,-0.48215 -1.83448,-0.48215 -1.33816,0 -2.3863,0.44384 -3.14546,1.33166 -0.75915,0.88783 -1.1388,2.11754 -1.1388,3.68732 0,1.54404 0.39018,2.77146 1.16864,3.68502 0.77846,0.90712 1.81606,1.3615 3.11562,1.3615 0.7077,0 1.31979,-0.14168 1.83448,-0.42475 0.5211,-0.28306 0.96495,-0.71866 1.33166,-1.30411 v 1.35233 c 0,0.90068 -0.16828,1.54488 -0.50281,1.9309 -0.32812,0.38602 -0.86548,0.57858 -1.61178,0.57858 -0.0442,0 -0.0861,0.009 -0.12856,0.0207 l -102.505526,0.19516 c 1.571799,-2.28372 2.36025,-5.08808 2.36025,-8.417 0,-0.37961 -0.0061,-0.66124 -0.01837,-0.84492 0,-0.18369 -0.01221,-0.3551 -0.03674,-0.51429 l -12.251252,3.61843 v 1.12043 h 6.465432 v 0.29388 c 0,1.43269 -0.587755,2.59596 -1.7633,3.48987 -1.175548,0.88166 -2.706154,1.32247 -4.591926,1.32247 -11.4631077,-0.6953 -10.9270247,-18.07032 0.110207,-18.20239 1.39596,0 2.626568,0.26939 3.691908,0.80818 1.065336,0.52654 2.081661,1.38982 3.049039,2.58984 l 3.875585,-2.86536 c -1.432694,-1.82454 -3.061267,-3.19598 -4.885809,-4.11436 -1.824546,-0.9184 -3.832704,-1.37758 -6.024607,-1.37758 z m 27.730641,5.50572 c -0.437481,0 -0.812076,0.15772 -1.127319,0.47297 -0.315241,0.31523 -0.472967,0.69213 -0.472967,1.12961 0,0.43104 0.157726,0.80794 0.472967,1.12961 0.315243,0.32168 0.689838,0.48216 1.127319,0.48216 0.443913,0 0.823555,-0.15773 1.138797,-0.47297 0.321677,-0.31524 0.484448,-0.69488 0.484448,-1.1388 0,-0.44391 -0.162771,-0.8208 -0.484448,-1.12961 -0.315242,-0.31525 -0.694884,-0.47297 -1.138797,-0.47297 z m 34.462403,0 v 14.9582 h 2.741379 v -14.9582 z m 12.747186,0.512 c -2.180964,0 -3.98564,0.69784 -5.413881,2.09392 -1.428242,1.39607 -2.142133,3.16085 -2.142133,5.29678 0,2.15523 0.711141,3.9356 2.13295,5.33812 1.421807,1.39606 3.229233,2.09391 5.423064,2.09391 1.917188,0 3.481151,-0.65751 4.690651,-1.96993 1.209502,-1.31245 1.813811,-3.02633 1.813811,-5.14296 0,-0.19944 -0.0028,-0.34662 -0.0092,-0.44312 1e-6,-0.0965 -0.0055,-0.18728 -0.01836,-0.27092 h -6.43788 v 2.49112 h 3.398005 v 0.15383 c 0,0.75271 -0.309951,1.36253 -0.927569,1.83217 -0.617619,0.46322 -1.422295,0.69568 -2.413057,0.69568 -1.351039,0 -2.447324,-0.43833 -3.290115,-1.31329 -0.836358,-0.8814 -1.253595,-2.03636 -1.253595,-3.46461 0,-1.45397 0.417237,-2.61445 1.253595,-3.48297 0.836358,-0.86853 1.951441,-1.30181 3.347514,-1.30181 0.733422,0 1.38037,0.14168 1.940089,0.42475 0.559716,0.27664 1.094338,0.72873 1.602582,1.35921 l 2.036519,-1.50386 c -0.752722,-0.95859 -1.608295,-1.68028 -2.566887,-2.16279 -0.958594,-0.48252 -2.014532,-0.72323 -3.166132,-0.72323 z m -59.088902,0.31914 v 14.12706 h 3.021487 v -6.10956 h 5.296787 v -2.56689 h -5.296787 v -2.90439 h 5.296787 v -2.54622 z m 19.368743,4.30263 c -1.190202,0 -2.147558,0.28611 -2.874545,0.85869 -0.726989,0.57258 -1.090583,1.32361 -1.090583,2.25004 10e-7,0.62405 0.211369,1.14813 0.635982,1.57274 0.431045,0.42462 1.203627,0.8446 2.316626,1.26278 0.167272,0.0643 0.391939,0.14456 0.675014,0.24107 0.91356,0.30881 1.37069,0.6935 1.37069,1.15028 0,0.28952 -0.128381,0.51693 -0.385722,0.6842 -0.257342,0.16083 -0.612685,0.24108 -1.063031,0.24108 -0.45678,0 -0.839172,-0.10684 -1.147982,-0.31914 -0.308806,-0.2123 -0.498628,-0.50116 -0.569399,-0.86788 l -2.112286,1.09059 c 0.231608,0.63049 0.691488,1.13025 1.379874,1.49696 0.694821,0.36028 1.531594,0.53955 2.509488,0.53955 1.235236,0 2.216437,-0.27785 2.943424,-0.83114 0.726989,-0.55327 1.088286,-1.29926 1.088286,-2.23856 0,-0.70125 -0.216869,-1.27622 -0.654348,-1.72656 -0.43748,-0.45679 -1.175217,-0.85522 -2.211013,-1.1962 -0.0772,-0.0258 -0.189535,-0.0606 -0.337507,-0.10561 -1.248103,-0.40531 -1.87121,-0.84364 -1.87121,-1.31329 0,-0.27021 0.125631,-0.48938 0.376539,-0.65665 0.250907,-0.16727 0.57736,-0.25026 0.982672,-0.25026 0.40531,0 0.744607,0.0935 1.014816,0.28011 0.270207,0.18015 0.460028,0.44745 0.569398,0.80129 l 2.015855,-1.00563 c -0.283075,-0.62406 -0.737455,-1.10549 -1.361505,-1.44646 -0.617618,-0.34098 -1.350308,-0.512 -2.199533,-0.512 z m 10.200964,0.039 c -1.505444,0 -2.732406,0.47043 -3.678133,1.40972 -0.945728,0.93286 -1.41661,2.14148 -1.41661,3.62763 0,1.5183 0.468132,2.75351 1.407426,3.70568 0.939294,0.94572 2.155709,1.4189 3.648285,1.4189 0.488948,0 0.938282,-0.0559 1.350026,-0.1653 0.411746,-0.10295 0.804685,-0.26616 1.177829,-0.49134 l -0.01837,-2.86536 c -0.289508,0.34098 -0.607709,0.59224 -0.95512,0.75307 -0.340977,0.16085 -0.733916,0.24108 -1.177829,0.24108 -0.804189,0 -1.443344,-0.23522 -1.919424,-0.70486 -0.469648,-0.47609 -0.704862,-1.11249 -0.704862,-1.91024 0,-0.77846 0.230167,-1.40386 0.693381,-1.87351 0.463213,-0.47608 1.080819,-0.71404 1.852842,-0.71404 0.424612,0 0.8281,0.0802 1.207677,0.24107 0.379579,0.16085 0.713827,0.39056 1.003335,0.6865 l 0.01837,-2.75975 c -0.360277,-0.20588 -0.739919,-0.3581 -1.138798,-0.4546 -0.398877,-0.0965 -0.84821,-0.14465 -1.350025,-0.14465 z m 8.279241,0 c -1.344604,0 -2.395496,0.44659 -3.154652,1.34084 -0.752722,0.88783 -1.129614,2.13083 -1.129614,3.72635 0,1.53118 0.382392,2.76135 1.147982,3.69421 0.772021,0.93285 1.785318,1.40053 3.039854,1.40053 0.752722,0 1.389126,-0.13893 1.910241,-0.41557 0.527549,-0.28307 0.979179,-0.72415 1.352323,-1.32247 l -0.03903,1.36151 h 2.663317 v -9.46626 h -2.605922 v 1.56355 c -0.360277,-0.62405 -0.806861,-1.09448 -1.340842,-1.40972 -0.527549,-0.31524 -1.142404,-0.47297 -1.843659,-0.47297 z m 33.583002,0 c -1.34459,0 -2.3955,0.44659 -3.154636,1.34084 -0.75271,0.88783 -1.129588,2.13083 -1.129588,3.72635 0,1.53118 0.382378,2.76135 1.147948,3.69421 0.772016,0.93285 1.785326,1.40053 3.039856,1.40053 0.75271,0 1.38912,-0.13893 1.91024,-0.41557 0.52754,-0.28307 0.97918,-0.72415 1.35232,-1.32247 l -0.039,1.36151 h 2.66331 v -9.46626 h -2.60591 v 1.56355 c -0.36028,-0.62405 -0.80686,-1.09448 -1.34085,-1.40972 -0.52754,-0.31524 -1.14239,-0.47297 -1.84366,-0.47297 z m 14.57249,0 c -0.69482,0 -1.32848,0.14718 -1.90106,0.44312 -0.56615,0.28952 -1.09802,0.74389 -1.5934,1.36151 v -1.48549 h -2.69087 v 9.46626 h 2.75056 v -4.16947 -0.37654 c 0,-0.59189 0.0348,-1.03297 0.10556,-1.32247 0.0772,-0.28952 0.1978,-0.54628 0.36507,-0.77145 0.21231,-0.28951 0.47686,-0.51142 0.79211,-0.66583 0.32167,-0.16083 0.67197,-0.24107 1.05155,-0.24107 0.65621,0 1.12114,0.18707 1.39134,0.56021 0.27022,0.37314 0.40411,1.14068 0.40411,2.30515 v 4.68147 h 2.75055 v -5.52868 -0.30077 c 0,-0.70769 -0.0321,-1.22396 -0.0964,-1.55207 -0.0579,-0.33455 -0.15693,-0.63395 -0.29848,-0.89773 -0.2895,-0.50825 -0.68518,-0.88514 -1.18699,-1.12961 -0.49538,-0.25091 -1.11025,-0.37654 -1.84366,-0.37654 z m -75.484337,0.31914 v 9.46626 h 2.739083 v -9.46626 z m 28.235751,1.95846 c 0.726987,0 1.304247,0.2485 1.72886,0.74389 0.431046,0.49538 0.645165,1.16663 0.645165,2.01586 0,0.85565 -0.208619,1.52141 -0.626797,1.99748 -0.418179,0.47608 -1.006441,0.71405 -1.765596,0.71405 -0.746288,0 -1.331799,-0.23797 -1.756412,-0.71405 -0.418178,-0.47607 -0.626797,-1.14183 -0.626797,-1.99748 0,-0.85566 0.21137,-1.52692 0.635982,-2.01586 0.431045,-0.49539 1.019307,-0.74389 1.765595,-0.74389 z m 33.583016,0 c 0.72698,0 1.30424,0.2485 1.72885,0.74389 0.43105,0.49538 0.64517,1.16663 0.64517,2.01586 0,0.85565 -0.20862,1.52141 -0.62681,1.99748 -0.41817,0.47608 -1.00643,0.71405 -1.76559,0.71405 -0.74628,0 -1.33179,-0.23797 -1.75641,-0.71405 -0.41818,-0.47607 -0.62679,-1.14183 -0.62679,-1.99748 0,-0.85566 0.21136,-1.52692 0.63597,-2.01586 0.43105,-0.49539 1.01931,-0.74389 1.76561,-0.74389 z m 24.31884,0.0574 c 0.73341,0 1.31342,0.24072 1.73803,0.72323 0.42462,0.48252 0.63599,1.14275 0.63599,1.97912 0,0.84279 -0.21137,1.49799 -0.63599,1.96764 -0.41817,0.46965 -1.00369,0.70486 -1.75641,0.70486 -0.75272,0 -1.33822,-0.23521 -1.75641,-0.70486 -0.41817,-0.46965 -0.62679,-1.12485 -0.62679,-1.96764 0,-0.84279 0.21137,-1.50304 0.63597,-1.97912 0.42462,-0.48251 1.01288,-0.72323 1.76561,-0.72323 z" />
        <path
           d="m 14.586361,264.29702 c -3.240882,0 -6.042492,0.81407 -8.4101119,2.43372 v -1.77248 H -9.659007 v 4.45876 H 0.36516747 v 4.82841 H -7.4801376 v 4.7182 h 7.84530507 c 0.26723039,2.41157 0,10.40613 0,12.88494 H 6.1762491 v -1.75641 c 2.3594112,1.60879 5.1610479,2.41765 8.4101119,2.41765 3.534393,0 6.435551,-1.17623 8.706292,-3.51971 l 103.341297,0.0597 c 0.19539,0.009 0.39705,0.0161 0.60612,0.0161 0.92,0 1.70084,-0.10683 2.34418,-0.31914 0.64335,-0.2123 1.17248,-0.54104 1.58422,-0.98496 0.28952,-0.29593 0.49256,-0.64624 0.60843,-1.05156 0.12228,-0.40531 0.18368,-1.10591 0.18368,-2.1031 v -9.31242 h -2.58755 v 1.56355 c -0.36029,-0.61761 -0.80962,-1.08529 -1.35003,-1.40054 -0.53398,-0.32166 -1.1461,-0.48215 -1.83448,-0.48215 -1.33816,0 -2.3863,0.44384 -3.14546,1.33166 -0.75915,0.88783 -1.1388,2.11754 -1.1388,3.68732 0,1.54404 0.39018,2.77146 1.16864,3.68502 0.77846,0.90712 1.81606,1.3615 3.11562,1.3615 0.7077,0 1.31979,-0.14168 1.83448,-0.42475 0.5211,-0.28306 0.96495,-0.71866 1.33166,-1.30411 v 1.35233 c 0,0.90068 -0.16828,1.54488 -0.50281,1.9309 -0.32812,0.38602 -0.86548,0.57858 -1.61178,0.57858 -0.0442,0 -0.0861,0.009 -0.12856,0.0207 l -102.505567,0.19516 c 1.571799,-2.28372 2.36025,-5.08808 2.36025,-8.417 0,-0.37961 -0.0061,-0.66124 -0.01837,-0.84492 0,-0.18369 -0.01221,-0.3551 -0.03674,-0.51429 l -12.251252,3.61843 v 1.12043 h 6.465432 v 0.29388 c 0,1.43269 -0.587755,2.59596 -1.7633,3.48987 -1.175548,0.88166 -2.706154,1.32247 -4.591926,1.32247 -11.4631074,-0.6953 -10.9270244,-18.07032 0.110207,-18.20239 1.39596,0 2.626568,0.26939 3.691908,0.80818 1.065336,0.52654 2.081661,1.38982 3.049039,2.58984 l 3.875585,-2.86536 c -1.432694,-1.82454 -3.061267,-3.19598 -4.885809,-4.11436 -1.824546,-0.9184 -3.832704,-1.37758 -6.024607,-1.37758 z m 27.730641,5.50572 c -0.437481,0 -0.812076,0.15772 -1.127319,0.47297 -0.315241,0.31523 -0.472967,0.69213 -0.472967,1.12961 0,0.43104 0.157726,0.80794 0.472967,1.12961 0.315243,0.32168 0.689838,0.48216 1.127319,0.48216 0.443913,0 0.823555,-0.15773 1.138797,-0.47297 0.321677,-0.31524 0.484448,-0.69488 0.484448,-1.1388 0,-0.44391 -0.162771,-0.8208 -0.484448,-1.12961 -0.315242,-0.31525 -0.694884,-0.47297 -1.138797,-0.47297 z m 34.462403,0 v 14.9582 h 2.741379 v -14.9582 z m 12.747186,0.512 c -2.180964,0 -3.98564,0.69784 -5.413881,2.09392 -1.428242,1.39607 -2.142133,3.16085 -2.142133,5.29678 0,2.15523 0.711141,3.9356 2.13295,5.33812 1.421807,1.39606 3.229233,2.09391 5.423064,2.09391 1.917188,0 3.481151,-0.65751 4.690651,-1.96993 1.209502,-1.31245 1.813811,-3.02633 1.813811,-5.14296 0,-0.19944 -0.0028,-0.34662 -0.0092,-0.44312 1e-6,-0.0965 -0.0055,-0.18728 -0.01836,-0.27092 h -6.43788 v 2.49112 h 3.398005 v 0.15383 c 0,0.75271 -0.309951,1.36253 -0.927569,1.83217 -0.617619,0.46322 -1.422295,0.69568 -2.413057,0.69568 -1.351039,0 -2.447324,-0.43833 -3.290115,-1.31329 -0.836358,-0.8814 -1.253595,-2.03636 -1.253595,-3.46461 0,-1.45397 0.417237,-2.61445 1.253595,-3.48297 0.836358,-0.86853 1.951441,-1.30181 3.347514,-1.30181 0.733422,0 1.38037,0.14168 1.940089,0.42475 0.559716,0.27664 1.094338,0.72873 1.602582,1.35921 l 2.036519,-1.50386 c -0.752722,-0.95859 -1.608295,-1.68028 -2.566887,-2.16279 -0.958594,-0.48252 -2.014532,-0.72323 -3.166132,-0.72323 z m -59.088902,0.31914 v 14.12706 h 3.021487 v -6.10956 h 5.296787 v -2.56689 h -5.296787 v -2.90439 h 5.296787 v -2.54622 z m 19.368743,4.30263 c -1.190202,0 -2.147558,0.28611 -2.874545,0.85869 -0.726989,0.57258 -1.090583,1.32361 -1.090583,2.25004 10e-7,0.62405 0.211369,1.14813 0.635982,1.57274 0.431045,0.42462 1.203627,0.8446 2.316626,1.26278 0.167272,0.0643 0.391939,0.14456 0.675014,0.24107 0.91356,0.30881 1.37069,0.6935 1.37069,1.15028 0,0.28952 -0.128381,0.51693 -0.385722,0.6842 -0.257342,0.16083 -0.612685,0.24108 -1.063031,0.24108 -0.45678,0 -0.839172,-0.10684 -1.147982,-0.31914 -0.308806,-0.2123 -0.498628,-0.50116 -0.569399,-0.86788 l -2.112286,1.09059 c 0.231608,0.63049 0.691488,1.13025 1.379874,1.49696 0.694821,0.36028 1.531594,0.53955 2.509488,0.53955 1.235236,0 2.216437,-0.27785 2.943424,-0.83114 0.726989,-0.55327 1.088286,-1.29926 1.088286,-2.23856 0,-0.70125 -0.216869,-1.27622 -0.654348,-1.72656 -0.43748,-0.45679 -1.175217,-0.85522 -2.211013,-1.1962 -0.0772,-0.0258 -0.189535,-0.0606 -0.337507,-0.10561 -1.248103,-0.40531 -1.87121,-0.84364 -1.87121,-1.31329 0,-0.27021 0.125631,-0.48938 0.376539,-0.65665 0.250907,-0.16727 0.57736,-0.25026 0.982672,-0.25026 0.40531,0 0.744607,0.0935 1.014816,0.28011 0.270207,0.18015 0.460028,0.44745 0.569398,0.80129 l 2.015855,-1.00563 c -0.283075,-0.62406 -0.737455,-1.10549 -1.361505,-1.44646 -0.617618,-0.34098 -1.350308,-0.512 -2.199533,-0.512 z m 10.200964,0.039 c -1.505444,0 -2.732406,0.47043 -3.678133,1.40972 -0.945728,0.93286 -1.41661,2.14148 -1.41661,3.62763 0,1.5183 0.468132,2.75351 1.407426,3.70568 0.939294,0.94572 2.155709,1.4189 3.648285,1.4189 0.488948,0 0.938282,-0.0559 1.350026,-0.1653 0.411746,-0.10295 0.804685,-0.26616 1.177829,-0.49134 l -0.01837,-2.86536 c -0.289508,0.34098 -0.607709,0.59224 -0.95512,0.75307 -0.340977,0.16085 -0.733916,0.24108 -1.177829,0.24108 -0.804189,0 -1.443344,-0.23522 -1.919424,-0.70486 -0.469648,-0.47609 -0.704862,-1.11249 -0.704862,-1.91024 0,-0.77846 0.230167,-1.40386 0.693381,-1.87351 0.463213,-0.47608 1.080819,-0.71404 1.852842,-0.71404 0.424612,0 0.8281,0.0802 1.207677,0.24107 0.379579,0.16085 0.713827,0.39056 1.003335,0.6865 l 0.01837,-2.75975 c -0.360277,-0.20588 -0.739919,-0.3581 -1.138798,-0.4546 -0.398877,-0.0965 -0.84821,-0.14465 -1.350025,-0.14465 z m 8.279241,0 c -1.344604,0 -2.395496,0.44659 -3.154652,1.34084 -0.752722,0.88783 -1.129614,2.13083 -1.129614,3.72635 0,1.53118 0.382392,2.76135 1.147982,3.69421 0.772021,0.93285 1.785318,1.40053 3.039854,1.40053 0.752722,0 1.389126,-0.13893 1.910241,-0.41557 0.527549,-0.28307 0.979179,-0.72415 1.352323,-1.32247 l -0.03903,1.36151 h 2.663317 v -9.46626 h -2.605922 v 1.56355 c -0.360277,-0.62405 -0.806861,-1.09448 -1.340842,-1.40972 -0.527549,-0.31524 -1.142404,-0.47297 -1.843659,-0.47297 z m 33.583043,0 c -1.34459,0 -2.395496,0.44659 -3.154644,1.34084 -0.752729,0.88783 -1.129615,2.13083 -1.129615,3.72635 0,1.53118 0.382388,2.76135 1.147977,3.69421 0.77202,0.93285 1.785332,1.40053 3.039862,1.40053 0.75271,0 1.38912,-0.13893 1.91024,-0.41557 0.52754,-0.28307 0.97918,-0.72415 1.35232,-1.32247 l -0.039,1.36151 h 2.66331 v -9.46626 h -2.60591 v 1.56355 c -0.36028,-0.62405 -0.80686,-1.09448 -1.34085,-1.40972 -0.52754,-0.31524 -1.14239,-0.47297 -1.84366,-0.47297 z m 14.57249,0 c -0.69482,0 -1.32848,0.14718 -1.90106,0.44312 -0.56615,0.28952 -1.09802,0.74389 -1.5934,1.36151 v -1.48549 h -2.69087 v 9.46626 h 2.75056 v -4.16947 -0.37654 c 0,-0.59189 0.0348,-1.03297 0.10556,-1.32247 0.0772,-0.28952 0.1978,-0.54628 0.36507,-0.77145 0.21231,-0.28951 0.47686,-0.51142 0.79211,-0.66583 0.32167,-0.16083 0.67197,-0.24107 1.05155,-0.24107 0.65621,0 1.12114,0.18707 1.39134,0.56021 0.27022,0.37314 0.40411,1.14068 0.40411,2.30515 v 4.68147 h 2.75055 v -5.52868 -0.30077 c 0,-0.70769 -0.0321,-1.22396 -0.0964,-1.55207 -0.0579,-0.33455 -0.15693,-0.63395 -0.29848,-0.89773 -0.2895,-0.50825 -0.68518,-0.88514 -1.18699,-1.12961 -0.49538,-0.25091 -1.11025,-0.37654 -1.84366,-0.37654 z m -75.484378,0.31914 v 9.46626 h 2.739083 v -9.46626 z m 28.235751,1.95846 c 0.726987,0 1.304247,0.2485 1.72886,0.74389 0.431046,0.49538 0.645165,1.16663 0.645165,2.01586 0,0.85565 -0.208619,1.52141 -0.626797,1.99748 -0.418179,0.47608 -1.006441,0.71405 -1.765596,0.71405 -0.746288,0 -1.331799,-0.23797 -1.756412,-0.71405 -0.418178,-0.47607 -0.626797,-1.14183 -0.626797,-1.99748 0,-0.85566 0.21137,-1.52692 0.635982,-2.01586 0.431045,-0.49539 1.019307,-0.74389 1.765595,-0.74389 z m 33.583057,0 c 0.72698,0 1.30424,0.2485 1.72885,0.74389 0.43105,0.49538 0.64517,1.16663 0.64517,2.01586 0,0.85565 -0.20862,1.52141 -0.62681,1.99748 -0.41817,0.47608 -1.00643,0.71405 -1.76559,0.71405 -0.74628,0 -1.33179,-0.23797 -1.75641,-0.71405 -0.41818,-0.47607 -0.62679,-1.14183 -0.62679,-1.99748 0,-0.85566 0.21136,-1.52692 0.63597,-2.01586 0.43105,-0.49539 1.01931,-0.74389 1.76561,-0.74389 z m 24.31884,0.0574 c 0.73341,0 1.31342,0.24072 1.73803,0.72323 0.42462,0.48252 0.63599,1.14275 0.63599,1.97912 0,0.84279 -0.21137,1.49799 -0.63599,1.96764 -0.41817,0.46965 -1.00369,0.70486 -1.75641,0.70486 -0.75272,0 -1.33822,-0.23521 -1.75641,-0.70486 -0.41817,-0.46965 -0.62679,-1.12485 -0.62679,-1.96764 0,-0.84279 0.21137,-1.50304 0.63597,-1.97912 0.42462,-0.48251 1.01288,-0.72323 1.76561,-0.72323 z"
           style="font-style:normal;font-variant:normal;font-weight:normal;font-stretch:normal;font-size:30.00019999999999953px;line-height:1.25;font-family:'Futura Hv BT';-inkscape-font-specification:'Futura Hv BT';letter-spacing:0px;word-spacing:0px;fill:url(#linearGradient934);fill-opacity:1;stroke:none;stroke-width:1.41065"
           id="path938" />
      </g>
    </g>
  </g>
</svg>
