<?xml version="1.0" encoding="UTF-8" standalone="no"?>
<svg
   xmlns:dc="http://purl.org/dc/elements/1.1/"
   xmlns:cc="http://creativecommons.org/ns#"
   xmlns:rdf="http://www.w3.org/1999/02/22-rdf-syntax-ns#"
   xmlns:svg="http://www.w3.org/2000/svg"
   xmlns="http://www.w3.org/2000/svg"
   xmlns:sodipodi="http://sodipodi.sourceforge.net/DTD/sodipodi-0.dtd"
   xmlns:inkscape="http://www.inkscape.org/namespaces/inkscape"
   sodipodi:docname="navbar_logo.svg"
   inkscape:version="0.92.3 (2405546, 2018-03-11)"
   id="svg8"
   version="1.1"
   viewBox="0 0 36.512498 6.8791667"
   height="26"
   width="138">
  <defs
     id="defs2" />
  <sodipodi:namedview
     inkscape:window-maximized="1"
     inkscape:window-y="0"
     inkscape:window-x="28"
     inkscape:window-height="1056"
     inkscape:window-width="2532"
     showgrid="false"
     inkscape:document-rotation="0"
     inkscape:current-layer="layer1"
     inkscape:document-units="px"
     inkscape:cy="24.482424"
     inkscape:cx="81.071816"
     inkscape:zoom="6.1452631"
     inkscape:pageshadow="2"
     inkscape:pageopacity="0.0"
     borderopacity="1.0"
     bordercolor="#666666"
     pagecolor="#ffffff"
     id="base"
     inkscape:showpageshadow="false"
     units="px" />
  <metadata
     id="metadata5">
    <rdf:RDF>
      <cc:Work
         rdf:about="">
        <dc:format>image/svg+xml</dc:format>
        <dc:type
           rdf:resource="http://purl.org/dc/dcmitype/StillImage" />
        <dc:title></dc:title>
      </cc:Work>
    </rdf:RDF>
  </metadata>
  <g
     id="layer1"
     inkscape:groupmode="layer"
     inkscape:label="Livello 1"
     transform="translate(0,-290.12083)">
    <g
       id="g1731"
       transform="matrix(0.46334899,0,0,0.46334899,69.829131,181.8785)"
       style="fill:#ffffff">
      <g
         id="g900"
         transform="matrix(0.38036296,0,0,0.38036296,-134.56411,133.07985)"
         style="fill:#ffffff">
        <path
           sodipodi:nodetypes="sccccccccccccsccscccsccccscscsccscsccscccccscccccccsscscscscs"
           inkscape:connector-curvature="0"
           id="text822-2"
           d="m 1.6834984,264.297 c -4.1388948,0 -7.7175566,1.0389 -10.7412185,3.10734 v -2.26327 H -29.278188 v 5.69454 h 12.801331 v 6.16782 h -10.018901 v 6.02374 h 10.018901 c 0.341277,3.07979 0,13.29033 0,16.456 h 7.4191369 v -2.24257 c 3.0131777,2.05457 6.5918751,3.08665 10.7412185,3.08665 4.5137347,0 8.217803,-1.50144 11.1177406,-4.49427 l 131.978791,0.0761 c 0.24954,0.0115 0.5059,0.019 0.7729,0.019 1.17491,0 2.17318,-0.136 2.9948,-0.40714 0.82161,-0.27113 1.4958,-0.69008 2.02163,-1.25701 0.36974,-0.37793 0.62825,-0.82544 0.77622,-1.34306 0.15616,-0.51762 0.23418,-1.41346 0.23418,-2.68696 v -11.89313 h -3.30263 v 1.99681 c -0.46012,-0.78875 -1.03523,-1.38402 -1.72538,-1.78662 -0.68195,-0.41079 -1.46276,-0.6165 -2.34188,-0.6165 -1.70897,0 -3.04811,0.56672 -4.01762,1.70055 -0.9695,1.13384 -1.45395,2.70302 -1.45395,4.70777 0,1.97188 0.49703,3.54107 1.49119,4.70776 0.99417,1.15848 2.32072,1.7378 3.98038,1.7378 0.90378,0 1.68457,-0.18053 2.34188,-0.54203 0.6655,-0.3615 1.23224,-0.91647 1.70056,-1.66414 v 1.72538 c 0,1.15026 -0.2141,1.9722 -0.64133,2.46518 -0.41903,0.49298 -1.10497,0.7398 -2.05805,0.7398 -0.0565,0 -0.11115,0.0106 -0.1655,0.0257 l -130.907978,0.25074 c 2.007327,-2.91651 3.01383,-6.49817 3.01383,-10.7495 0,-0.48479 -0.0075,-0.8445 -0.02317,-1.07908 0,-0.23459 -0.01585,-0.45376 -0.04717,-0.65706 L 1.7770082,285.9259 v 1.42913 H 10.03401 v 0.3757 c 0,1.82967 -0.7504071,3.31542 -2.2516826,4.45702 -1.5012798,1.12596 -3.4563428,1.68897 -5.8646408,1.68897 -14.6394096,-0.88796 -13.9548486,-23.07804 0.1406788,-23.24671 1.7827671,0 3.3546804,0.34384 4.715214,1.03192 1.3605298,0.67244 2.6580568,1.77506 3.8934836,3.3076 l 4.950227,-3.6593 c -1.829678,-2.3301 -3.910228,-4.08106 -6.2403311,-5.25392 C 7.0468513,264.88343 4.482753,264.297 1.6834984,264.297 Z M 145.3684,280.91692 c 0.93664,0 1.67631,0.30813 2.21858,0.92434 0.54226,0.61622 0.81345,1.45831 0.81345,2.52642 0,1.07632 -0.27119,1.91423 -0.81345,2.51401 -0.53405,0.59979 -1.28212,0.89952 -2.24341,0.89952 -0.96129,0 -1.70853,-0.29973 -2.24258,-0.89952 -0.53405,-0.59978 -0.80104,-1.43769 -0.80104,-2.51401 0,-1.07631 0.27119,-1.91842 0.81345,-2.52642 0.54227,-0.61621 1.29371,-0.92434 2.255,-0.92434 z"
           style="font-style:normal;font-variant:normal;font-weight:normal;font-stretch:normal;font-size:30.00021362px;line-height:1.25;font-family:'Futura Hv BT';-inkscape-font-specification:'Futura Hv BT';letter-spacing:0px;word-spacing:0px;fill:#ffffff;fill-opacity:1;stroke:none;stroke-width:1.80153191" />
        <path
           d="m 21.928487,290.43124 v -18.04272 h 10.623518 v 3.25361 h -6.766022 v 3.70959 h 6.766022 v 3.27827 h -6.766022 v 7.80125 z"
           style="font-style:normal;font-variant:normal;font-weight:normal;font-stretch:normal;font-size:medium;line-height:1.25;font-family:'Futura Hv BT';-inkscape-font-specification:'Futura Hv BT';letter-spacing:0px;word-spacing:0px;fill:#ffffff;fill-opacity:1;stroke:none;stroke-width:0.9465037"
           id="path836-7"
           inkscape:connector-curvature="0" />
        <path
           d="m 35.053833,273.37446 q 0,-0.83806 0.603888,-1.44194 0.603888,-0.60389 1.441939,-0.60389 0.850375,0 1.454263,0.60389 0.616214,0.59157 0.616214,1.44194 0,0.85038 -0.616214,1.45426 -0.603888,0.60389 -1.454263,0.60389 -0.838051,0 -1.441939,-0.61622 -0.603888,-0.61621 -0.603888,-1.44193 z m 0.308106,17.05678 v -12.0901 h 3.500092 v 12.0901 z"
           style="font-style:normal;font-variant:normal;font-weight:normal;font-stretch:normal;font-size:medium;line-height:1.25;font-family:'Futura Hv BT';-inkscape-font-specification:'Futura Hv BT';letter-spacing:0px;word-spacing:0px;fill:#ffffff;fill-opacity:1;stroke:none;stroke-width:0.9465037"
           id="path838-0"
           inkscape:connector-curvature="0" />
        <path
           d="m 41.240613,288.31147 2.699015,-1.39265 q 0.13557,0.7025 0.727131,1.10919 0.591566,0.4067 1.466589,0.4067 0.862698,0 1.355669,-0.3081 0.492971,-0.32043 0.492971,-0.87503 0,-0.87503 -1.750047,-1.46658 -0.542267,-0.18488 -0.862698,-0.30812 -2.132099,-0.80107 -2.957824,-1.61448 -0.813403,-0.81339 -0.813403,-2.00884 0,-1.7747 1.392643,-2.87156 1.392642,-1.09686 3.672632,-1.09686 1.626803,0 2.809934,0.65319 1.195452,0.65317 1.737721,1.84863 l -2.575772,1.28174 q -0.209513,-0.67784 -0.727132,-1.02293 -0.51762,-0.35741 -1.294047,-0.35741 -0.77643,0 -1.257076,0.32044 -0.480647,0.32043 -0.480647,0.83805 0,0.89967 2.390909,1.6761 0.283458,0.0863 0.431349,0.13563 1.984206,0.65319 2.822256,1.52822 0.838051,0.86269 0.838051,2.20603 0,1.79935 -1.392643,2.85923 -1.392642,1.05989 -3.758901,1.05989 -1.873288,0 -3.20431,-0.69015 -1.318696,-0.70248 -1.76237,-1.91027 z"
           style="font-style:normal;font-variant:normal;font-weight:normal;font-stretch:normal;font-size:medium;line-height:1.25;font-family:'Futura Hv BT';-inkscape-font-specification:'Futura Hv BT';letter-spacing:0px;word-spacing:0px;fill:#ffffff;fill-opacity:1;stroke:none;stroke-width:0.9465037"
           id="path840-9"
           inkscape:connector-curvature="0" />
        <path
           d="m 62.869703,290.07383 q -0.714808,0.43136 -1.503561,0.62855 -0.788753,0.2095 -1.725398,0.2095 -2.859229,0 -4.658573,-1.81165 -1.799343,-1.824 -1.799343,-4.73252 0,-2.84691 1.811668,-4.63392 1.811667,-1.79935 4.695545,-1.79935 0.961294,0 1.725397,0.18486 0.764105,0.18486 1.454265,0.57924 l -0.02464,3.52474 q -0.554591,-0.56691 -1.281724,-0.87503 -0.727131,-0.3081 -1.540532,-0.3081 -1.478913,0 -2.36626,0.912 -0.887348,0.89967 -0.887348,2.3909 0,1.52821 0.899672,2.44022 0.911997,0.89967 2.452529,0.89967 0.850375,0 1.503561,-0.30812 0.665511,-0.3081 1.220102,-0.96129 z"
           style="font-style:normal;font-variant:normal;font-weight:normal;font-stretch:normal;font-size:medium;line-height:1.25;font-family:'Futura Hv BT';-inkscape-font-specification:'Futura Hv BT';letter-spacing:0px;word-spacing:0px;fill:#ffffff;fill-opacity:1;stroke:none;stroke-width:0.9465037"
           id="path842-3"
           inkscape:connector-curvature="0" />
        <path
           d="m 74.454513,284.36771 q 0,-1.62681 -0.825725,-2.57577 -0.813403,-0.94898 -2.206044,-0.94898 -1.429615,0 -2.255342,0.94898 -0.813401,0.93664 -0.813401,2.57577 0,1.63912 0.801077,2.55111 0.813403,0.912 2.243018,0.912 1.454263,0 2.25534,-0.912 0.801077,-0.91199 0.801077,-2.55111 z m 3.20431,6.06353 h -3.401497 l 0.04929,-1.73772 q -0.714807,1.14616 -1.725397,1.68843 -0.998266,0.52993 -2.440205,0.52993 -2.403232,0 -3.882143,-1.78701 -1.466589,-1.78702 -1.466589,-4.72019 0,-3.05643 1.441939,-4.75718 1.454265,-1.71306 4.030036,-1.71306 1.343346,0 2.353936,0.60389 1.022913,0.60388 1.713073,1.79934 v -1.99653 h 3.327551 z"
           style="font-style:normal;font-variant:normal;font-weight:normal;font-stretch:normal;font-size:medium;line-height:1.25;font-family:'Futura Hv BT';-inkscape-font-specification:'Futura Hv BT';letter-spacing:0px;word-spacing:0px;fill:#ffffff;fill-opacity:1;stroke:none;stroke-width:0.9465037"
           id="path844-6"
           inkscape:connector-curvature="0" />
        <path
           d="m 81.109619,290.43124 v -19.10261 h 3.500092 v 19.10261 z"
           style="font-style:normal;font-variant:normal;font-weight:normal;font-stretch:normal;font-size:medium;line-height:1.25;font-family:'Futura Hv BT';-inkscape-font-specification:'Futura Hv BT';letter-spacing:0px;word-spacing:0px;fill:#ffffff;fill-opacity:1;stroke:none;stroke-width:0.9465037"
           id="path846-0"
           inkscape:connector-curvature="0" />
        <path
           d="m 97.439273,280.91691 h 8.220287 q 0.0246,0.16022 0.0246,0.34508 0.0123,0.18486 0.0123,0.56692 0,4.05468 -2.31696,6.56884 -2.31696,2.51413 -5.989591,2.51413 -4.202575,0 -6.926238,-2.67435 -2.723664,-2.6867 -2.723664,-6.81533 0,-4.09166 2.735988,-6.76602 2.735987,-2.67437 6.913914,-2.67437 2.206044,0 4.042361,0.92433 1.83631,0.92432 3.27825,2.76063 l -2.60042,1.92258 q -0.97361,-1.20777 -2.04582,-1.73772 -1.072216,-0.54226 -2.477183,-0.54226 -2.674365,0 -4.276521,1.66377 -1.602154,1.66378 -1.602154,4.44906 0,2.73599 1.602154,4.42442 1.61448,1.6761 4.202576,1.6761 1.897938,0 3.081068,-0.88736 1.18313,-0.89967 1.18313,-2.3416 v -0.19719 h -4.338144 z"
           style="font-style:normal;font-variant:normal;font-weight:normal;font-stretch:normal;font-size:medium;line-height:1.25;font-family:'Futura Hv BT';-inkscape-font-specification:'Futura Hv BT';letter-spacing:0px;word-spacing:0px;fill:#ffffff;fill-opacity:1;stroke:none;stroke-width:0.9465037"
           id="path848-6"
           inkscape:connector-curvature="0" />
        <path
           d="m 117.34297,284.36771 q 0,-1.62681 -0.82573,-2.57577 -0.8134,-0.94898 -2.20604,-0.94898 -1.42962,0 -2.25534,0.94898 -0.81341,0.93664 -0.81341,2.57577 0,1.63912 0.80108,2.55111 0.8134,0.912 2.24302,0.912 1.45426,0 2.25534,-0.912 0.80108,-0.91199 0.80108,-2.55111 z m 3.20431,6.06353 h -3.4015 l 0.0493,-1.73772 q -0.7148,1.14616 -1.72539,1.68843 -0.99827,0.52993 -2.44021,0.52993 -2.40323,0 -3.88214,-1.78701 -1.46659,-1.78702 -1.46659,-4.72019 0,-3.05643 1.44194,-4.75718 1.45426,-1.71306 4.03003,-1.71306 1.34335,0 2.35394,0.60389 1.02291,0.60388 1.71307,1.79934 v -1.99653 h 3.32755 z"
           style="font-style:normal;font-variant:normal;font-weight:normal;font-stretch:normal;font-size:medium;line-height:1.25;font-family:'Futura Hv BT';-inkscape-font-specification:'Futura Hv BT';letter-spacing:0px;word-spacing:0px;fill:#ffffff;fill-opacity:1;stroke:none;stroke-width:0.9465037"
           id="path850-2"
           inkscape:connector-curvature="0" />
        <path
           d="m 123.8625,290.43124 v -12.0901 h 3.43847 v 1.89794 q 0.94898,-1.18313 2.03351,-1.73773 1.09686,-0.56691 2.42787,-0.56691 1.40497,0 2.35393,0.48065 0.96129,0.46831 1.51589,1.44194 0.27114,0.50529 0.38205,1.14615 0.1233,0.62854 0.1233,1.98421 v 0.38205 7.0618 h -3.51241 v -5.97727 q 0,-2.23069 -0.51762,-2.94549 -0.51762,-0.71481 -1.7747,-0.71481 -0.72714,0 -1.34334,0.3081 -0.6039,0.29579 -1.0106,0.85038 -0.32043,0.43134 -0.46831,0.98594 -0.13564,0.55459 -0.13564,1.68843 v 0.48064 5.32408 z"
           style="font-style:normal;font-variant:normal;font-weight:normal;font-stretch:normal;font-size:medium;line-height:1.25;font-family:'Futura Hv BT';-inkscape-font-specification:'Futura Hv BT';letter-spacing:0px;word-spacing:0px;fill:#ffffff;fill-opacity:1;stroke:none;stroke-width:0.9465037"
           id="path852-6"
           inkscape:connector-curvature="0" />
      </g>
    </g>
  </g>
</svg>
