<?xml version="1.0" encoding="UTF-8" standalone="no"?>
<!-- Created with Inkscape (http://www.inkscape.org/) -->

<svg
   xmlns:dc="http://purl.org/dc/elements/1.1/"
   xmlns:cc="http://creativecommons.org/ns#"
   xmlns:rdf="http://www.w3.org/1999/02/22-rdf-syntax-ns#"
   xmlns:svg="http://www.w3.org/2000/svg"
   xmlns="http://www.w3.org/2000/svg"
   xmlns:sodipodi="http://sodipodi.sourceforge.net/DTD/sodipodi-0.dtd"
   xmlns:inkscape="http://www.inkscape.org/namespaces/inkscape"
   width="24"
   height="24"
   viewBox="0 0 6.3499998 6.3500001"
   version="1.1"
   id="svg8"
   inkscape:version="0.92.3 (2405546, 2018-03-11)"
   sodipodi:docname="profile_card.svg">
  <defs
     id="defs2" />
  <sodipodi:namedview
     id="base"
     pagecolor="#ffffff"
     bordercolor="#666666"
     borderopacity="1.0"
     inkscape:pageopacity="0.0"
     inkscape:pageshadow="2"
     inkscape:zoom="14.630529"
     inkscape:cx="9.6383053"
     inkscape:cy="-0.67709897"
     inkscape:document-units="px"
     inkscape:current-layer="layer1"
     showgrid="false"
     units="px"
     inkscape:showpageshadow="false"
     inkscape:window-width="2532"
     inkscape:window-height="1055"
     inkscape:window-x="28"
     inkscape:window-y="0"
     inkscape:window-maximized="1" />
  <metadata
     id="metadata5">
    <rdf:RDF>
      <cc:Work
         rdf:about="">
        <dc:format>image/svg+xml</dc:format>
        <dc:type
           rdf:resource="http://purl.org/dc/dcmitype/StillImage" />
        <dc:title />
      </cc:Work>
    </rdf:RDF>
  </metadata>
  <g
     inkscape:label="Livello 1"
     inkscape:groupmode="layer"
     id="layer1"
     transform="translate(0,-290.64998)">
    <path
       sodipodi:nodetypes="ccccccscsssssscsccccccccssccccsccsssccsccccssscccsscssscscssccccscccccccccccscccccccccc"
       style="fill:#d43daa;fill-opacity:1;stroke-width:0.01689427"
       inkscape:connector-curvature="0"
       d="m 5.1472441,295.25473 -0.7386344,-0.26859 c 0.00265,-0.0349 -0.00911,-0.0703 -0.034532,-0.097 L 4.138048,294.64116 v -0.41627 c 0.024953,-0.0206 0.049551,-0.0417 0.073389,-0.064 0.2977615,-0.27909 0.4685288,-0.67313 0.4685288,-1.08108 v -0.33244 c 0.089911,-0.19565 0.1354752,-0.40269 0.1354752,-0.61592 v -1.35475 c 0,-0.07 -0.056731,-0.1267 -0.1267071,-0.1267 H 2.7920308 c -0.6674926,0 -1.2105251,0.54304 -1.2105251,1.21052 v 0.27097 c 0,0.21322 0.045564,0.42026 0.1354752,0.61591 v 0.28604 c 0,0.47365 0.2106039,0.90036 0.5419174,1.18169 v 0.42607 l -0.2360298,0.24797 c -0.025426,0.0267 -0.037184,0.0622 -0.034532,0.097 l -0.7795861,0.28347 c -0.056494,0.0205 -0.1089849,0.0484 -0.1566436,0.0821 0,0 0,0 -0.18157966,0.19255 -0.14290778,0.40471 -0.26147245,1.16942 0.0248008,1.45569 0.0699761,0 0.12670706,-0.0567 0.12670706,-0.12671 v -0.97522 c 0,-0.17394 0.1098296,-0.33075 0.2733155,-0.39021 l 0.82194,-0.29887 0.3421596,0.51326 c 0.043739,0.0656 0.1138336,0.1077 0.1923075,0.11548 0.00875,8.6e-4 0.017452,10e-4 0.026135,10e-4 0.069233,0 0.1355428,-0.0273 0.1851106,-0.0768 l 0.2087456,-0.20875 v 1.31985 c 0,0.07 0.056731,0.12671 0.126707,0.12671 0.069976,0 0.126707,-0.0567 0.126707,-0.12671 v -1.31985 l 0.2087456,0.20875 c 0.049551,0.0496 0.1158609,0.0768 0.1851105,0.0768 0.00867,0 0.017384,-4.3e-4 0.026119,-10e-4 0.078491,-0.008 0.1485851,-0.0498 0.1923243,-0.11547 l 0.3421766,-0.51325 0.8219231,0.29888 c 0.163469,0.0595 0.2733155,0.21626 0.2733155,0.39021 v 0.97522 c 0,0.07 0.056731,0.1267 0.126707,0.1267 0.069976,0 0.1267071,-0.0567 0.1267071,-0.1267 0.021739,-0.50884 -0.1874082,-1.43882 -0.1874082,-1.43882 z M 1.9703949,293.0334 v -0.31437 c 0,-0.0191 -0.00431,-0.0379 -0.012603,-0.0551 -0.081532,-0.16884 -0.1228721,-0.34799 -0.1228721,-0.53247 v -0.27095 c 0,-0.52776 0.4293679,-0.95711 0.9571111,-0.95711 h 1.7699958 v 1.22807 c 0,0.18449 -0.04134,0.36364 -0.122872,0.53248 -0.0083,0.0172 -0.012603,0.036 -0.012603,0.0551 v 0.36078 c 0,0.34314 -0.1379418,0.66141 -0.3884162,0.89619 -0.031271,0.0293 -0.063725,0.0568 -0.097277,0.0824 -7.434e-4,5e-4 -0.00145,10e-4 -0.00218,0.002 -0.2346445,0.17815 -0.5220498,0.26473 -0.8221934,0.24528 -0.6426749,-0.0416 -1.1460904,-0.60027 -1.1460904,-1.27185 z m 0.7134281,2.54953 c -8.785e-4,8.8e-4 -0.00292,0.003 -0.00706,0.003 -0.00412,-4e-4 -0.00574,-0.003 -0.00644,-0.004 l -0.3940588,-0.59109 0.1268083,-0.13325 0.5978038,0.40862 z m 0.5146502,-0.48897 -0.6861608,-0.46902 v -0.23652 c 0.1775419,0.096 0.3763368,0.15601 0.5877685,0.16969 0.0334,0.002 0.066597,0.003 0.099693,0.003 0.2422808,0 0.4754555,-0.0579 0.68486,-0.16785 v 0.23145 z m 0.5281486,0.48766 c -6.926e-4,0.001 -0.00231,0.003 -0.00644,0.004 -0.00414,5.3e-4 -0.00617,-0.002 -0.00706,-0.003 l -0.3170547,-0.31706 0.5978037,-0.40864 0.1268253,0.13325 z"
       id="path1274" />
    <path
       style="fill:#d43daa;fill-opacity:1;stroke-width:0.01689427"
       inkscape:connector-curvature="0"
       d="m 1.7082127,296.20459 c -0.069976,0 -0.126707,0.0567 -0.126707,0.12671 v 0.54192 c 0,0.07 0.056731,0.1267 0.126707,0.1267 0.069976,0 0.126707,-0.0567 0.126707,-0.1267 v -0.54192 c 0,-0.07 -0.056731,-0.12671 -0.126707,-0.12671 z"
       id="path1298" />
    <path
       style="fill:#d43daa;fill-opacity:1;stroke-width:0.01689427"
       inkscape:connector-curvature="0"
       d="m 4.6887336,296.20459 c -0.069976,0 -0.126707,0.0567 -0.126707,0.12671 v 0.54192 c 0,0.07 0.056731,0.1267 0.126707,0.1267 0.069976,0 0.1267071,-0.0567 0.1267071,-0.1267 v -0.54192 c 0,-0.07 -0.056731,-0.12671 -0.1267071,-0.12671 z"
       id="path1304" />
  </g>
</svg>
