<?xml version="1.0" encoding="UTF-8" standalone="no"?>
<!-- Created with Inkscape (http://www.inkscape.org/) -->

<svg
   xmlns:dc="http://purl.org/dc/elements/1.1/"
   xmlns:cc="http://creativecommons.org/ns#"
   xmlns:rdf="http://www.w3.org/1999/02/22-rdf-syntax-ns#"
   xmlns:svg="http://www.w3.org/2000/svg"
   xmlns="http://www.w3.org/2000/svg"
   xmlns:sodipodi="http://sodipodi.sourceforge.net/DTD/sodipodi-0.dtd"
   xmlns:inkscape="http://www.inkscape.org/namespaces/inkscape"
   width="24"
   height="24"
   viewBox="0 0 6.3499998 6.3500001"
   version="1.1"
   id="svg8"
   inkscape:version="0.92.3 (2405546, 2018-03-11)"
   sodipodi:docname="use_type_card.svg">
  <defs
     id="defs2" />
  <sodipodi:namedview
     id="base"
     pagecolor="#ffffff"
     bordercolor="#666666"
     borderopacity="1.0"
     inkscape:pageopacity="0.0"
     inkscape:pageshadow="2"
     inkscape:zoom="10.345346"
     inkscape:cx="-11.332221"
     inkscape:cy="25.460752"
     inkscape:document-units="px"
     inkscape:current-layer="layer1"
     showgrid="false"
     units="px"
     inkscape:showpageshadow="false"
     inkscape:window-width="2532"
     inkscape:window-height="1055"
     inkscape:window-x="28"
     inkscape:window-y="0"
     inkscape:window-maximized="1" />
  <metadata
     id="metadata5">
    <rdf:RDF>
      <cc:Work
         rdf:about="">
        <dc:format>image/svg+xml</dc:format>
        <dc:type
           rdf:resource="http://purl.org/dc/dcmitype/StillImage" />
        <dc:title />
      </cc:Work>
    </rdf:RDF>
  </metadata>
  <g
     inkscape:label="Livello 1"
     inkscape:groupmode="layer"
     id="layer1"
     transform="translate(0,-290.64998)">
    <path
       style="fill:#cccccc;stroke-width:0.01240236"
       inkscape:connector-curvature="0"
       d="m 3.874716,293.82664 0.3651429,0.33511 -0.7311095,0.73096 -0.3355904,-0.36446 z m 0,0"
       id="path1020" />
    <path
       style="fill:#f9f9f9;stroke-width:0.01240236"
       inkscape:connector-curvature="0"
       d="m 6.1677473,291.53376 -0.5505482,0.55486 H 5.2663475 l -0.3426636,-0.35507 v -0.35085 l 0.5424582,-0.5505 C 5.354279,290.7945 5.234373,290.774 5.1097193,290.774 c -0.7641974,0 -1.3009877,0.75156 -1.0580267,1.47274 l -1.0538136,1.05395 -8.236e-4,-8.7e-4 -1.6451538,-1.64888 v -0.35071 l -0.87693397,-0.52623 -0.35075424,0.35076 0.52613143,0.87693 0.35070578,1.5e-4 1.6452505,1.64883 7.268e-4,7.3e-4 -1.0501796,1.05023 c -0.71982133,-0.24248 -1.47273177,0.29228 -1.47273177,1.05798 0,0.12465 0.0204445,0.24456 0.0581361,0.35642 l 0.55054857,-0.55486 h 0.3508511 l 0.3550658,0.35507 v 0.35085 l -0.55486016,0.55054 c 0.11186346,0.0377 0.23176906,0.0582 0.35642246,0.0582 0.7656035,0 1.3005038,-0.75296 1.0580279,-1.47278 0.5086422,-0.50864 1.9484784,-1.94848 2.4548432,-2.45484 0.1120094,0.0377 0.2319154,0.0582 0.3565678,0.0582 0.6164841,0 1.1161641,-0.49968 1.1161641,-1.11616 0,-0.12466 -0.020444,-0.24461 -0.058136,-0.35648 z m 0,0"
       id="path1022" />
    <g
       id="g2136"
       style="fill:#d43daa;fill-opacity:1"
       transform="translate(5.2916669)">
      <path
         id="path1024"
         d="m -0.98994154,292.5742 c -0.068455,0 -0.12402356,0.0554 -0.12402356,0.12397 0,0.0685 0.055568,0.12403 0.12402356,0.12403 0.068601,0 0.1240236,-0.0555 0.1240236,-0.12403 0,-0.0686 -0.055423,-0.12397 -0.1240236,-0.12397 z m 0,0"
         inkscape:connector-curvature="0"
         style="fill:#d43daa;fill-opacity:1;stroke-width:0.01240236" />
      <path
         id="path1026"
         d="m -3.2433921,294.8276 c -0.068601,0 -0.1240236,0.0556 -0.1240236,0.12402 0,0.0686 0.055423,0.12403 0.1240236,0.12403 0.068455,0 0.1240236,-0.0554 0.1240236,-0.12403 0,-0.0684 -0.055568,-0.12402 -0.1240236,-0.12402 z m 0,0"
         inkscape:connector-curvature="0"
         style="fill:#d43daa;fill-opacity:1;stroke-width:0.01240236" />
      <path
         id="path1028"
         d="m 0.90413124,291.41298 c -0.041858,-0.01 -0.085847,0.003 -0.1160783,0.0334 l -0.51416496,0.51823 h -0.2464969 l -0.27135006,-0.28111 v -0.24993 l 0.50680106,-0.51436 c 0.029988,-0.0304 0.042197,-0.0742 0.032266,-0.11579 -0.00988,-0.0416 -0.040502,-0.0751 -0.081003,-0.0888 -0.127318,-0.0429 -0.2605465,-0.0647 -0.39605196,-0.0647 -0.4039487,0 -0.77093266,0.18836 -1.00686802,0.51678 -0.2208202,0.30744 -0.2888878,0.68421 -0.1913646,1.0448 l -0.9135598,0.91356 -1.5220021,-1.52549 v -0.2994 c 0,-0.0435 -0.022867,-0.084 -0.060219,-0.10634 l -0.8769342,-0.52623 c -0.048834,-0.0293 -0.111282,-0.0216 -0.1514929,0.0187 l -0.3507542,0.3507 c -0.040211,0.0403 -0.047914,0.10271 -0.018652,0.15154 l 0.5261314,0.87694 c 0.022382,0.0374 0.062739,0.0602 0.1062921,0.0602 l 0.2993038,9e-5 1.5221476,1.52549 -0.9100716,0.91008 c -0.360589,-0.0975 -0.7375529,-0.0293 -1.0451412,0.19165 -0.3282265,0.23579 -0.516442,0.60268 -0.516442,1.00663 0,0.13545 0.021753,0.26873 0.064676,0.396 0.01371,0.0407 0.047575,0.0715 0.089433,0.0812 0.041907,0.01 0.085848,-0.003 0.1161268,-0.0334 l 0.5141167,-0.51819 h 0.247853 l 0.2823958,0.2824 v 0.24785 l -0.5181862,0.51412 c -0.030521,0.0303 -0.043166,0.0742 -0.033428,0.11612 0.00969,0.0419 0.040453,0.0757 0.081197,0.0894 0.1272696,0.0429 0.2605466,0.0647 0.3960034,0.0647 0.403949,0 0.7707874,-0.18826 1.0066261,-0.51649 0.2209654,-0.30759 0.28913,-0.6845 0.1916551,-1.04509 l 0.7309158,-0.73092 0.1674319,0.18187 -0.076837,0.0768 c -0.048447,0.0485 -0.048447,0.12698 0,0.17543 0.048447,0.0484 0.1269305,0.0484 0.1754256,0 l 0.06957,-0.0696 1.57093322,1.70639 c 0.00116,10e-4 0.00237,0.002 0.00359,0.004 0.29068026,0.29068 0.76163082,0.29078 1.05245652,-5e-5 0.29000196,-0.29015 0.29000196,-0.76226 0,-1.05241 -0.00126,-0.001 -0.00257,-0.002 -0.00388,-0.004 l -1.70905478,-1.56793 0.068794,-0.0688 c 0.048447,-0.0484 0.048447,-0.12693 0,-0.17538 -0.048447,-0.0485 -0.1269304,-0.0485 -0.1754256,0 l -0.076304,0.0763 -0.1822082,-0.16724 0.7344511,-0.73445 c 0.1044027,0.0279 0.2121482,0.042 0.3212986,0.042 0.68387382,0 1.2401884,-0.55636 1.2401884,-1.24019 0,-0.1355 -0.021752,-0.26873 -0.064676,-0.39605 -0.01371,-0.0407 -0.047575,-0.0715 -0.089433,-0.0812 z m -5.10696214,0.50123 c -0.023254,-0.0233 -0.054793,-0.0352 -0.087737,-0.0352 l -0.2805066,-9e-5 -0.440187,-0.73494 0.2137954,-0.21379 0.7336772,0.44028 v 0.28051 c 0,0.0328 0.013032,0.0643 0.036238,0.0876 l 1.558434,1.56197 -0.1754255,0.17538 z m 3.154705,2.41923 1.71486834,1.57321 c 0.1915582,0.1936 0.190977,0.50705 -0.00179,0.69991 -0.1932055,0.19321 -0.50597756,0.19379 -0.69995816,0.002 L -1.6110769,294.8963 Z m -0.1829348,-0.16787 -0.5481747,0.54808 -0.1674318,-0.18187 0.5333983,-0.53344 z m 1.04911352,-1.2832 c -0.1084722,0 -0.2151519,-0.0174 -0.3169868,-0.0517 -0.044619,-0.015 -0.093938,-0.003 -0.12726956,0.0299 -0.62176506,0.62176 -1.96151066,1.96146 -2.45484356,2.45484 -0.033331,0.0333 -0.04491,0.0827 -0.029843,0.12732 0.1030946,0.30613 0.053776,0.63266 -0.1353602,0.89597 -0.1886031,0.26253 -0.4820933,0.41316 -0.8051361,0.41316 -0.036286,0 -0.072379,-0.002 -0.108133,-0.006 l 0.3939203,-0.39087 c 0.023448,-0.0233 0.036674,-0.0549 0.036674,-0.088 v -0.35085 c 0,-0.0329 -0.013081,-0.0644 -0.036335,-0.0877 l -0.3550661,-0.35507 c -0.023254,-0.0233 -0.054793,-0.0363 -0.087689,-0.0363 h -0.3508507 c -0.033089,0 -0.064773,0.0132 -0.088076,0.0367 l -0.3908199,0.39392 c -0.00388,-0.0358 -0.00581,-0.0718 -0.00581,-0.10813 0,-0.32309 0.1505724,-0.61654 0.4131538,-0.80514 0.2632596,-0.18914 0.5898389,-0.2385 0.8960219,-0.13536 0.044619,0.0151 0.093938,0.003 0.1272698,-0.0298 0.00683,-0.007 2.4530995,-2.4531 2.4548435,-2.45485 0.033331,-0.0333 0.044862,-0.0826 0.029843,-0.12727 -0.1031431,-0.30613 -0.053921,-0.63256 0.13506946,-0.89568 0.1887484,-0.26277 0.48228696,-0.41344 0.80537816,-0.41344 0.037401,0 0.074559,0.002 0.1113789,0.006 l -0.3857327,0.3915 c -0.022867,0.0232 -0.035657,0.0545 -0.035657,0.087 v 0.35085 c 0,0.0322 0.012451,0.063 0.034785,0.0861 l 0.3426637,0.35506 c 0.023351,0.0242 0.055568,0.0379 0.089239,0.0379 h 0.3508512 c 0.033041,0 0.064725,-0.0132 0.088028,-0.0367 l 0.39081982,-0.39387 c 0.00388,0.0358 0.00581,0.0719 0.00581,0.10814 0,0.54706 -0.44508012,0.99214 -0.99214038,0.99214 z m 0,0"
         inkscape:connector-curvature="0"
         style="fill:#d43daa;fill-opacity:1;stroke-width:0.01240236" />
      <path
         id="path1030"
         d="m -1.4283843,292.96124 -1.5519906,1.55199 c -0.048398,0.0484 -0.048398,0.12693 0,0.17538 0.048447,0.0484 0.1269788,0.0484 0.1754255,0 l 1.5519907,-1.552 c 0.048447,-0.0484 0.048447,-0.12693 0,-0.17537 -0.048447,-0.0485 -0.1269789,-0.0485 -0.1754256,0 z m 0,0"
         inkscape:connector-curvature="0"
         style="fill:#d43daa;fill-opacity:1;stroke-width:0.01240236" />
    </g>
    <path
       style="fill:#d43daa;fill-opacity:1;stroke-width:0.01240236"
       inkscape:connector-curvature="0"
       d="m 5.4305339,296.25586 c 0.048447,0.0483 0.1269788,0.0483 0.1754256,-2.9e-4 0.04835,-0.0485 0.048204,-0.12703 -2.903e-4,-0.17538 l -1.117908,-1.11432 c -0.048495,-0.0483 -0.1270757,-0.0482 -0.1753771,2.9e-4 -0.048398,0.0485 -0.048253,0.12702 2.419e-4,0.17537 z m 0,0"
       id="path1032" />
  </g>
</svg>
